<svg id="Capa_1" enable-background="new 0 0 511.213 511.213" height="512" viewBox="0 0 511.213 511.213" width="512" xmlns="http://www.w3.org/2000/svg"><g><path d="m449.297 225.605h-387.38c-20.678 0-37.5 16.822-37.5 37.5v54.92c0 72.825 53.906 137.627 125.648 150.705-11.774 18.044 1.685 42.483 23.042 42.483h165c21.357 0 34.816-24.439 23.042-42.483 71.739-13.078 125.648-77.843 125.648-150.705v-54.92c0-20.678-16.823-37.5-37.5-37.5zm-387.38 15h387.38c12.407 0 22.5 10.094 22.5 22.5v11.62h-330.35c-4.142 0-7.5 3.357-7.5 7.5s3.358 7.5 7.5 7.5h330.35v28.3c0 19.229-3.953 37.551-11.08 54.203h-410.22c-7.128-16.652-11.08-34.974-11.08-54.203v-28.3h69.35c4.142 0 7.5-3.357 7.5-7.5s-3.358-7.5-7.5-7.5h-69.35v-11.62c0-12.406 10.093-22.5 22.5-22.5zm271.69 215.61h-13.96c-4.142 0-7.5 3.357-7.5 7.5s3.358 7.5 7.5 7.5c0 0 18.187-.002 18.46-.002 16.158 0 16.158 25 0 25h-165c-16.158 0-16.158-25 0-25 .273 0 113.85.002 113.85.002 4.142 0 7.5-3.357 7.5-7.5s-3.358-7.5-7.5-7.5h-109.35c-51 0-95.631-27.774-119.575-68.987h395.151c-23.945 41.214-68.576 68.987-119.576 68.987z"/><path d="m146.368 165.835c3.215 19.343 19.784 33.381 39.398 33.381h85.61c16.367 0 24.378-5.59 31.999-14.609.077-.092 40.375-52.69 40.375-52.69 20.125-26.277 49.023-44.628 81.372-51.673l38.238-8.328c15.417-3.354 25.724-18.48 22.977-33.724-2.779-15.381-18.701-26.822-34.865-23.305l-9.33 2.029c-4.048.881-6.615 4.876-5.735 8.923.88 4.048 4.878 6.612 8.922 5.735l9.333-2.03c8.842-1.025 14.479 2.746 16.912 11.312 1.331 7.387-3.784 14.745-11.405 16.402l-38.24 8.329c-35.813 7.8-67.807 28.116-90.087 57.208l-40.039 52.265c-5.375 6.33-9.645 9.156-20.428 9.156h-85.61c-12.248 0-22.594-8.765-24.602-20.844l-3.151-18.892c-.269-6.039 2.598-9.42 8.603-10.145h117.09c2.334 0 4.535-1.086 5.954-2.938l19.75-25.781c25.632-33.462 62.34-57.232 103.361-66.932 4.031-.953 6.526-4.994 5.573-9.024-.953-4.031-4.995-6.523-9.024-5.573-44.377 10.493-84.089 36.208-111.818 72.407l-17.499 22.842h-113.385c-16.335 1.975-24.134 11.18-23.398 27.613z"/><path d="m206.576 87.455c3.507 8.393 17.988 4.141 13.84-5.783-5.709-13.662-3.082-19.729.244-27.412 3.829-8.845 8.595-19.853-.319-39.762-1.693-3.779-6.128-5.475-9.91-3.779-3.78 1.692-5.473 6.129-3.78 9.91 6.215 13.88 3.71 19.665.244 27.671-3.782 8.735-8.488 19.606-.319 39.155z"/><path d="m157.852 77.394c3.507 8.393 17.988 4.141 13.84-5.783-5.709-13.662-3.082-19.729.244-27.412 3.829-8.845 8.595-19.853-.319-39.762-1.692-3.779-6.129-5.475-9.91-3.779-3.78 1.692-5.473 6.129-3.78 9.91 6.215 13.88 3.71 19.665.244 27.671-3.782 8.735-8.489 19.606-.319 39.155z"/><path d="m255.301 77.394c3.507 8.393 17.988 4.141 13.84-5.783-5.709-13.662-3.082-19.729.244-27.412 3.829-8.845 8.595-19.853-.319-39.762-1.693-3.779-6.128-5.475-9.91-3.779-3.78 1.692-5.473 6.129-3.78 9.91 6.215 13.88 3.71 19.665.244 27.671-3.783 8.735-8.489 19.606-.319 39.155z"/></g></svg>