<svg width="104" height="103" viewBox="0 0 104 103" fill="none" xmlns="http://www.w3.org/2000/svg">
<path d="M52.5 100C79.2858 100 101 78.2858 101 51.5C101 24.7142 79.2858 3 52.5 3C25.7142 3 4 24.7142 4 51.5C4 62.8913 7.92718 73.3654 14.5015 81.6421C15.2157 82.5413 15.5948 83.6994 15.2431 84.7925C13.2882 90.8672 6.1225 95.8022 3 97.2657C8.24649 98.8368 17.6504 99.0157 24.6207 94.5608C26.1124 93.6073 28.0244 93.4177 29.5841 94.2555C36.4083 97.9208 44.2114 100 52.5 100Z" stroke="#FFAC2F" stroke-width="5" stroke-linecap="round" stroke-linejoin="round"/>
<circle cx="51.5" cy="51.5" r="4.5" fill="#FFAC2F"/>
<circle cx="70.5" cy="51.5" r="4.5" fill="#FFAC2F"/>
<circle cx="32.5" cy="51.5" r="4.5" fill="#FFAC2F"/>
</svg>
