<svg width="59" height="64" viewBox="0 0 59 64" fill="none" xmlns="http://www.w3.org/2000/svg">
<path d="M12.9682 63.0767C13.0082 63.5977 13.4427 64 13.9652 64H44.327C44.8495 64 45.2839 63.5977 45.324 63.0767L48.0588 27.5244C48.1185 26.7665 48.7512 26.1818 49.5105 26.1818C54.3235 26.1818 58.2377 22.2676 58.2377 17.4545C58.2377 12.1818 53.6137 8.50764 49.4639 8.50764C48.0355 8.50764 46.7017 8.90618 45.5017 9.696C45.1454 9.93018 44.7003 9.99709 44.2915 9.87491C43.8814 9.75418 43.5454 9.46036 43.3723 9.06764C40.6348 2.88146 36.1155 0 29.1468 0C21.6457 0 15.9701 3.51273 15.0232 8.74036C14.9359 9.22036 14.6145 9.62473 14.165 9.81673C13.717 10.0116 13.2006 9.96509 12.7934 9.696C11.5934 8.90618 10.2595 8.50764 8.83118 8.50764C4.67991 8.50764 0.0559082 12.1818 0.0559082 17.4545C0.0559082 22.2676 3.97009 26.1818 8.78318 26.1818C9.54245 26.1818 10.1752 26.7665 10.2334 27.5244L12.9682 63.0767Z" fill="#C8EBFF"/>
<path d="M44.327 64H13.9652C13.4427 64 13.0082 63.5977 12.9682 63.0767L12.0881 51.6364H46.2041L45.324 63.0767C45.284 63.5977 44.8495 64 44.327 64Z" fill="#A9E0FF"/>
<path d="M15.0706 43.1202L16.9474 53.8181H24.9474M24.9474 53.8181H32.9474L33.8858 40.3049M24.9474 53.8181L24.009 40.3049M33.182 53.8181H41.182L43.0588 43.1202" stroke="#A9E0FF" stroke-width="2.5" stroke-linecap="round"/>
<path d="M48.0588 27.5244L45.253 64H28.3281L28.3289 0C35.2976 0 40.6348 2.88146 43.3723 9.06764C43.5454 9.46036 43.8814 9.75418 44.2915 9.87491C44.7003 9.99709 45.1454 9.93018 45.5017 9.696C46.7017 8.90618 48.0355 8.50764 49.4639 8.50764C53.6137 8.50764 58.2377 12.1818 58.2377 17.4545C58.2377 22.2676 54.3235 26.1818 49.5104 26.1818C48.7512 26.1818 48.1184 26.7665 48.0588 27.5244Z" fill="#3486B4" fill-opacity="0.17"/>
</svg>
