<svg width="65" height="57" viewBox="0 0 65 57" fill="none" xmlns="http://www.w3.org/2000/svg">
<path d="M33.8691 56.252C33.3683 56.7518 32.7119 57.0012 32.0559 57C31.403 56.9988 30.7504 56.7495 30.2519 56.252L5.40101 31.4527C1.97582 27.9763 0.0559082 23.2928 0.0559082 18.4134C0.0559082 13.534 1.97582 8.85043 5.40101 5.37411C7.10019 3.67063 9.11894 2.31908 11.3416 1.39689C13.5642 0.474696 15.947 0 18.3535 0C20.76 0 23.1428 0.474696 25.3654 1.39689C27.5881 2.31908 29.6068 3.67063 31.306 5.37411L32.0605 6.15121L32.815 5.37411C34.5142 3.67063 36.533 2.31908 38.7556 1.39689C40.9782 0.474696 43.361 0 45.7675 0C48.174 0 50.5568 0.474696 52.7794 1.39689C55.0021 2.31908 57.0208 3.67063 58.72 5.37411C62.1397 8.85329 64.0559 13.5358 64.0559 18.4134C64.0559 23.291 62.1397 27.9735 58.72 31.4527L33.8691 56.252Z" fill="#F94646"/>
<path d="M32.815 5.37411L32.0605 6.15121L32.0559 57C32.7119 57.0012 33.3683 56.7518 33.8691 56.252L58.72 31.4527C62.1397 27.9735 64.0559 23.291 64.0559 18.4134C64.0559 13.5358 62.1397 8.85329 58.72 5.37411C57.0208 3.67063 55.0021 2.31908 52.7794 1.39689C50.5568 0.474696 48.174 0 45.7675 0C43.361 0 40.9782 0.474696 38.7556 1.39689C36.533 2.31908 34.5142 3.67063 32.815 5.37411Z" fill="#EB3838"/>
</svg>
