<svg width="65" height="64" viewBox="0 0 65 64" fill="none" xmlns="http://www.w3.org/2000/svg">
<path d="M14.7256 58.7848C27.1382 66.9225 43.9647 65.5367 54.874 54.6274C67.3708 42.1306 67.3708 21.8694 54.874 9.37258C42.3772 -3.12419 22.1159 -3.12419 9.61917 9.37258C-1.43161 20.4234 -2.7103 37.5457 5.78312 50.0016L3.11665 59.953C2.86744 60.8831 3.71852 61.7341 4.64859 61.4849L14.7256 58.7848Z" fill="#FFCA43"/>
<path d="M54.8739 54.6274C67.3707 42.1306 67.3707 21.8693 54.8739 9.37255C48.6615 3.16014 40.5302 0.036048 32.3879 0.00028038V63.9997C40.5302 63.9639 48.6615 60.8398 54.8739 54.6274Z" fill="#ECBB3D"/>
<circle cx="16.3173" cy="31.1199" r="3.44373" fill="white"/>
<circle cx="32.3881" cy="31.1199" r="3.44373" fill="white"/>
<circle cx="48.4589" cy="31.1199" r="3.44373" fill="white"/>
</svg>
