<svg width="70" height="63" viewBox="0 0 70 63" fill="none" xmlns="http://www.w3.org/2000/svg">
<path d="M35 60C35.656 60.0012 36.3124 59.7518 36.8132 59.252L61.6641 34.4527C65.0838 30.9735 67 26.291 67 21.4134C67 17.1455 65.5329 13.027 62.8752 9.73324C62.4955 9.26271 62.0916 8.80901 61.6641 8.37411C60.0711 6.7771 58.1973 5.4894 56.1379 4.57481C56.0006 4.51384 55.8625 4.45452 55.7235 4.39689C53.5009 3.4747 51.1181 3 48.7116 3C46.6059 3 44.5184 3.36344 42.5404 4.07209C42.2578 4.17333 41.9775 4.28161 41.6997 4.39689C39.477 5.31908 37.4583 6.67063 35.7591 8.37411V8.37411C35.3461 8.79953 34.6631 8.79953 34.2501 8.37411V8.37411C32.5509 6.67063 30.5322 5.31908 28.3095 4.39689C26.0869 3.4747 23.7041 3 21.2976 3C18.8911 3 16.5083 3.4747 14.2857 4.39689C12.063 5.31908 10.0443 6.67063 8.3451 8.37411C4.91991 11.8504 3 16.534 3 21.4134C3 26.2928 4.91991 30.9763 8.3451 34.4527L33.196 59.252C33.6945 59.7495 34.3471 59.9988 35 60Z" stroke="#FFAC2F" stroke-width="5" stroke-linecap="round"/>
</svg>
