<svg width="98" height="89" viewBox="0 0 98 89" fill="none" xmlns="http://www.w3.org/2000/svg">
<path d="M21 56C21 53.7909 22.7909 52 25 52H40C42.2091 52 44 53.7909 44 56V86H21V56Z" stroke="#FFAC2F" stroke-width="5"/>
<rect x="55" y="52" width="22" height="19" rx="4" stroke="#FFAC2F" stroke-width="5"/>
<path d="M88 40.0073V84C88 85.1046 87.1046 86 86 86H12C10.8954 86 10 85.1046 10 84V40.0073M95 29L82.1327 5.1036C81.4351 3.80796 80.0824 3 78.6108 3H19.3892C17.9176 3 16.5649 3.80796 15.8673 5.1036L3 29M95 29C95 35.3513 89.8513 41 83.5 41C77.1487 41 72 35.3513 72 29M95 29H72M3 29C3 35.3513 8.14873 41 14.5 41C20.8513 41 26 35.3513 26 29M3 29H26M26 29C26 35.3513 30.9249 41 37 41C43.0751 41 48 35.3513 48 29M26 29H48M48 29C48 35.3513 53.3726 41 60 41C66.6274 41 72 35.3513 72 29M48 29H72" stroke="#FFAC2F" stroke-width="5"/>
</svg>
