<svg width="82" height="96" viewBox="0 0 82 96" fill="none" xmlns="http://www.w3.org/2000/svg">
<path d="M27.4999 54C23.9692 56.7632 15.0653 61.6474 8.60259 63.1826C7.56791 63.4284 6.56639 63.8854 5.93678 64.7425C2.36961 69.5983 2.38009 77.5204 2.75266 81.8479C2.87129 83.2257 3.63383 84.4578 4.84811 85.1197C10.9813 88.4624 25.7166 93 40.75 93C58.5 93 70.5186 88.4624 76.6518 85.1197C77.8661 84.4578 78.6287 83.2257 78.7473 81.8479C79.1198 77.5204 79.1303 69.5983 75.5632 64.7425C74.9335 63.8854 73.932 63.4284 72.8973 63.1826C66.4346 61.6474 57.5308 56.7632 54 54" stroke="#FFAC2F" stroke-width="5" stroke-linecap="round"/>
<path d="M23.4858 31.7257L22.5003 19.8996C22.5573 10.3929 30.7026 2.5 41 2.5C51.2974 2.5 59.4427 10.3929 59.4997 19.8996L58.5142 31.7257C57.104 41.8944 50.3786 49.5 41 49.5C31.6214 49.5 24.896 41.8944 23.4858 31.7257Z" stroke="#FFAC2F" stroke-width="5"/>
</svg>
