<svg width="431" height="386" viewBox="0 0 431 386" fill="none" xmlns="http://www.w3.org/2000/svg">
<mask id="mask0" mask-type="alpha" maskUnits="userSpaceOnUse" x="251" y="76" width="50" height="52">
<path d="M277.862 125.028L258.033 106.971C256.945 106.044 256.51 104.626 256.904 103.28C257.11 102.573 257.919 102.163 258.661 102.389L268.755 105.471C269.579 105.722 270.365 104.955 270.049 104.209L269.522 102.965C268.298 100.075 265.996 97.7051 263.025 96.2757L253.509 91.6978C252.99 91.448 252.818 90.8385 253.135 90.3696L258.117 82.9914C259.077 81.5696 260.911 80.8705 262.64 81.2672L269.004 82.7272C275.116 84.1293 280.392 87.5963 283.807 92.4552L296.989 111.207L300.331 118.713L277.862 125.028Z" fill="white"/>
</mask>
<g mask="url(#mask0)">
<path d="M277.862 125.028L258.033 106.971C256.945 106.044 256.51 104.626 256.904 103.28C257.11 102.573 257.919 102.163 258.661 102.389L268.755 105.471C269.579 105.722 270.365 104.955 270.049 104.209L269.522 102.965C268.298 100.075 265.996 97.7051 263.025 96.2757L253.509 91.6978C252.99 91.448 252.818 90.8385 253.135 90.3696L258.117 82.9914C259.077 81.5696 260.911 80.8705 262.64 81.2672L269.004 82.7272C275.116 84.1293 280.392 87.5963 283.807 92.4552L292.404 104.684C295.454 109.022 298.075 113.646 300.232 118.491L300.331 118.713L277.862 125.028Z" fill="white"/>
<path d="M278.117 92.5997V92.5997C274.849 88.763 270.399 86.1236 265.455 85.0885L257.601 83.4441" stroke="#4E4E4E" stroke-width="0.7" stroke-linecap="round"/>
<path d="M273.049 96.7101V96.7101C271.285 93.8981 268.571 91.8199 265.395 90.8494L253.626 87.2542" stroke="#4E4E4E" stroke-width="0.7" stroke-linecap="round"/>
</g>
<circle cx="183.607" cy="49.8417" r="14.7104" fill="black"/>
<path d="M130.947 289.021V310.269H283.499V219.283C287.676 222.37 302.479 237.303 320.547 244.345C338.616 251.387 352.827 227.97 348.334 216.559C344.269 206.234 309.942 131.193 303.44 116.992C302.826 115.652 301.335 114.966 299.915 115.361L275.891 122.034C274.278 122.482 273.344 124.163 273.815 125.769L286.223 168.069C260.616 145.186 245.906 144.641 234.465 144.641C232.721 143.334 228.283 150.09 210.848 150.09C193.414 150.09 184.34 144.097 183.795 144.641C160.368 144.097 146.202 154.085 141.299 159.352L79.7333 269.407L77.3658 274.537C76.7677 275.833 76.2957 277.204 76.277 278.631C76.1359 289.417 87.4848 302.263 98.0432 301.568C98.1862 301.559 98.3278 301.544 98.4699 301.526C99.4595 301.401 103.709 300.801 106.975 299.373C115.692 295.559 130.947 289.021 130.947 289.021Z" fill="black"/>
<path d="M295.297 199.124L274.048 125.028" stroke="#E0E0E0"/>
<path d="M220.299 43.8482C196.872 37.3103 181.072 51.4751 177.258 68.3648C175.792 74.8583 177.706 84.2124 180.776 93.4276C184.444 99.9656 189.938 115.553 191.235 122.848C192.537 130.177 193.598 109.122 192.513 97.7862C191.968 82.5311 195.782 79.2621 200.685 72.1793C209.314 77.9317 227.752 76.557 237.545 75.066C239.724 76.538 241.359 82.0952 241.359 89.069C243.974 84.2745 244.027 76.538 243.727 73.8138C244.89 73.3755 246.18 72.9371 247.018 72.4988C247.352 72.3243 247.502 71.9486 247.426 71.58C245.876 64.0776 238.541 48.939 220.299 43.8482Z" fill="black" stroke="url(#paint0_linear)" stroke-width="0.5"/>
<path d="M208.313 159.352C191.969 160.441 191.969 144.641 191.424 144.097L191.424 109.228C190.116 109.663 186.52 109.046 185.431 108.683C181.617 107.048 174.643 102.69 179.437 96.1518C184.232 89.6138 190.152 94.1541 192.513 97.2414C190.587 83.7816 196.873 74.0227 201.041 71.6345C212.097 77.4813 231.073 75.4161 239.369 74.3587C239.369 76.538 241.548 78.1725 241.548 80.3518C241.548 81.9862 241.112 87.5435 241.548 103.235C241.984 118.926 231.559 127.207 226.293 129.386L226.837 144.097C226.111 148.818 221.389 158.48 208.313 159.352Z" fill="white"/>
<path d="M190.983 101.153C188.747 97.2445 185.453 92.9024 180.883 98.8867" stroke="#8A8A8A" stroke-width="0.5" stroke-linecap="round"/>
<path d="M241.359 89.0691C243.974 84.2746 244.027 76.5381 243.727 73.8139C234.725 72.0705 235.855 73.9223 237.545 75.0661C239.724 76.5381 241.359 82.0953 241.359 89.0691Z" fill="black"/>
<path d="M213.861 82.0259C208.012 81.7101 203.236 83.344 200.384 84.8638C199.593 85.2854 199.868 86.3082 200.764 86.3317C204.875 86.4398 210.793 85.921 214.333 83.4448C214.992 82.9838 214.665 82.0692 213.861 82.0259Z" fill="black"/>
<path d="M229.676 81.4522C234.402 81.5965 238.108 83.4795 240.291 85.1263C240.968 85.6379 240.593 86.5686 239.745 86.5165C236.39 86.3104 231.693 85.3795 229.047 82.7815C228.505 82.2501 228.917 81.4291 229.676 81.4522Z" fill="black"/>
<path d="M226.648 138.63C216.646 139.018 207.378 133.355 202.676 128.986C208.418 130.785 218.205 132.767 226.648 129.229V138.63Z" fill="#BBBBBB"/>
<path d="M183.062 311.904V144.4C184.734 142.833 189.744 142.785 191.412 143.301C191.412 143.301 193.437 158.379 209.226 157.58C225.014 156.781 225.559 145.013 227.193 144.096C228.926 143.124 232.791 143.73 234.276 144.096V311.904H183.062Z" fill="#FFD987"/>
<path d="M244.083 309.725V145.187" stroke="white" stroke-width="1.1"/>
<path d="M215.782 199.288L207.083 248.101C206.767 249.871 208.069 251.519 209.863 251.622L232.346 252.919C233.783 253.002 235.075 252.054 235.428 250.659L247.09 204.498C247.523 202.784 246.388 201.069 244.641 200.798L219.195 196.85C217.584 196.6 216.068 197.683 215.782 199.288Z" fill="#00C2FF" stroke="#00ADE3" stroke-width="2"/>
<path d="M219.739 201.732L218.219 210.28C218.112 210.878 218.56 211.432 219.167 211.454L223.183 211.599C223.652 211.616 224.069 211.304 224.187 210.85L226.288 202.732C226.439 202.148 226.042 201.564 225.443 201.489L220.848 200.915C220.319 200.849 219.832 201.209 219.739 201.732Z" fill="#395259"/>
<path d="M221.152 203.537L220.914 204.151C220.662 204.804 221.192 205.554 221.916 205.57L223.372 205.602C223.716 205.609 224.025 205.441 224.191 205.156L224.599 204.455C224.934 203.879 224.482 203.105 223.786 203.064L222.069 202.964C221.658 202.939 221.294 203.167 221.152 203.537Z" fill="white"/>
<path d="M214.117 215.469C215.696 212.248 190.69 226.366 190.69 226.366C192.506 234.175 196.574 249.685 198.317 249.249C200.497 248.704 228.283 239.442 231.552 236.718C233.818 234.829 232.429 225.982 231.072 220.11C230.772 218.809 229.364 218.125 228.132 218.639C223.364 220.627 213.572 224.187 212.483 223.097C211.393 222.007 212.539 218.691 214.117 215.469Z" fill="white"/>
<mask id="mask1" mask-type="alpha" maskUnits="userSpaceOnUse" x="190" y="214" width="43" height="36">
<path d="M214.117 215.469C215.696 212.248 190.69 226.366 190.69 226.366C192.506 234.175 196.574 249.685 198.317 249.249C200.497 248.704 228.283 239.442 231.552 236.718C233.818 234.829 232.429 225.982 231.072 220.11C230.772 218.809 229.364 218.125 228.132 218.639C223.364 220.627 213.572 224.187 212.483 223.097C211.393 222.007 212.539 218.691 214.117 215.469Z" fill="white"/>
</mask>
<g mask="url(#mask1)">
<path d="M216.721 227.085C217.086 227.418 218.386 227.199 220.113 226.686C223.43 225.699 228.891 223.598 231.777 222.247" stroke="#777777" stroke-linecap="round"/>
<path d="M216.913 231.439C218.095 232.407 228.165 228.63 233.058 226.553" stroke="#777777" stroke-linecap="round"/>
<path d="M217.154 236.882C218.336 237.85 228.406 234.073 233.299 231.996" stroke="#777777" stroke-linecap="round"/>
</g>
<path d="M173.255 145.187V309.725" stroke="white"/>
<path d="M190.145 222.552L107.876 251.428C125.492 257.239 162.577 268.099 169.986 265.048C177.396 261.997 195.593 253.425 198.862 251.428C197.772 248.159 191.961 231.451 190.145 222.552Z" fill="black"/>
<path d="M122.586 248.159L190.145 223.097" stroke="#888888"/>
<path d="M248.073 86.3335L230.316 93.1164C229.03 93.6077 229.03 95.4275 230.316 95.9188L248.073 102.702C250.746 103.723 253.743 103.707 256.184 102.213C259.136 100.406 262.667 97.5995 262.667 94.5176C262.667 91.4357 259.136 88.6296 256.184 86.8222C253.743 85.3278 250.746 85.3122 248.073 86.3335Z" fill="#C4C4C4"/>
<circle cx="253.92" cy="94.5176" r="9.47663" fill="black" stroke="url(#paint1_linear)" stroke-width="0.6"/>
<path d="M226.696 85.7585L207.434 93.1165C206.147 93.6079 206.147 95.4276 207.434 95.919L226.696 103.277C229.369 104.298 232.364 104.277 234.816 102.801C237.984 100.894 241.903 97.859 241.903 94.5177C241.903 91.1765 237.984 88.1415 234.816 86.2342C232.364 84.758 229.369 84.7373 226.696 85.7585Z" fill="#C4C4C4"/>
<circle cx="232.642" cy="94.5175" r="10.0517" fill="black" stroke="url(#paint2_linear)" stroke-width="0.6"/>
<path d="M239.573 27.4687L253.006 2.52462" stroke="black" stroke-width="3" stroke-linecap="round"/>
<circle cx="238.416" cy="8.54772" r="4.01794" transform="rotate(17.6147 238.416 8.54772)" stroke="black" stroke-width="2.5"/>
<circle cx="254.378" cy="21.6548" r="4.19828" transform="rotate(17.6147 254.378 21.6548)" stroke="black" stroke-width="2.5"/>
<path d="M208.124 110.317C209.577 113.042 213.79 117.291 223.379 114.676" stroke="#2C2C2C" stroke-width="1.5" stroke-linecap="round"/>
<path d="M91.7144 300.347C80.7287 297.655 76.8811 287.296 76.8208 282.483C78.9564 280.149 86.3142 277.232 92.3261 283.719C98.3381 290.207 94.9515 297.259 91.7144 300.347Z" fill="url(#paint3_linear)"/>
<path d="M348.689 225.821C345.603 239.579 332.89 247.069 325.807 245.434C322.845 242.83 320.371 234.206 328.31 226.554C336.248 218.902 344.761 221.862 348.689 225.821Z" fill="url(#paint4_linear)"/>
<path d="M231.007 143.582C231.007 155.017 220.705 162.621 208.669 162.621C196.633 162.621 187.421 154.442 187.421 143.007" stroke="#1B1B1B"/>
<path d="M413.201 370.745H10.5613C7.85992 374.558 8.8603 386 15.1094 386H408.622C414.015 386 416.516 376.738 413.201 370.745Z" fill="#DE8500"/>
<path d="M356.617 309.724H66.2645C60.6913 309.724 55.4324 312.306 52.0237 316.715L10.588 370.315C8.04739 373.601 10.3898 378.373 14.5438 378.373H409.202C413.379 378.373 415.715 373.554 413.127 370.275L370.747 316.573C367.334 312.248 362.127 309.724 356.617 309.724Z" fill="#F29100"/>
<rect x="28.3311" y="140.828" width="58.8414" height="17.4345" fill="#F28300"/>
<rect x="-0.75" y="0.75" width="26.831" height="15.9345" transform="matrix(-1 0 0 1 26.8311 140.828)" stroke="#F28300" stroke-width="1.5"/>
<rect x="-0.75" y="0.75" width="45.3552" height="15.9345" transform="matrix(-1 0 0 1 56.2517 124.483)" stroke="#F28300" stroke-width="1.5"/>
<rect x="401.333" y="94.3123" width="57.3414" height="15.9345" transform="rotate(180 401.333 94.3123)" stroke="#F28300" stroke-width="1.5"/>
<rect x="0.75" y="-0.75" width="42.0862" height="15.9345" transform="matrix(1 8.74228e-08 8.74228e-08 -1 373.752 280.983)" stroke="#F28300" stroke-width="1.5"/>
<rect width="33.7793" height="17.4345" transform="matrix(1 -8.74228e-08 -8.74228e-08 -1 396.634 95.0623)" fill="#F28300"/>
<rect x="373.752" y="282.483" width="43.5862" height="17.4345" transform="rotate(-180 373.752 282.483)" fill="#F28300"/>
<path d="M314.448 59.1002C325.261 66.1894 339.919 64.9822 349.423 55.4785C360.31 44.592 360.31 26.9414 349.423 16.0548C338.537 5.16825 320.886 5.16825 309.999 16.0548C300.373 25.6817 299.259 40.5978 306.658 51.4487L304.335 60.1179C304.118 60.9281 304.859 61.6695 305.669 61.4524L314.448 59.1002Z" fill="#F8F8F8"/>
<path d="M319.269 32.9519H339.972V39.7588C339.972 41.4157 338.629 42.7588 336.972 42.7588H322.269C320.612 42.7588 319.269 41.4157 319.269 39.7588V32.9519Z" fill="#FFBD2F"/>
<rect x="319.27" y="29.6829" width="20.7035" height="8.71724" rx="3" fill="#FFCF67"/>
<path d="M333.434 29.6826C333.434 29.6826 329.076 29.6826 325.807 29.6826C324.273 29.6826 323.628 30.7723 323.628 32.9516C323.628 35.1309 324.521 35.6757 326.352 35.6757C329.621 35.6757 331.426 35.6757 333.979 35.6757C335.069 35.6757 335.614 34.9439 335.614 34.0412C335.614 33.1385 334.882 32.4068 333.979 32.4068C331.255 32.4068 327.441 32.4068 327.441 32.4068" stroke="#292929" stroke-linecap="round"/>
<rect x="0.75" y="-0.75" width="45.3552" height="15.9345" transform="matrix(1 -8.74228e-08 -8.74228e-08 -1 372.662 109.907)" stroke="#F28300" stroke-width="1.5"/>
<rect x="396.974" y="298.078" width="45.3552" height="15.9345" transform="rotate(-180 396.974 298.078)" stroke="#F28300" stroke-width="1.5"/>
<path d="M80 69C80 55.7452 90.7452 45 104 45H110.483C123.738 45 134.483 55.7452 134.483 69V95.4828C134.483 97.6919 132.692 99.4828 130.483 99.4828H104C90.7452 99.4828 80 88.7376 80 75.4828V69Z" fill="black"/>
<path d="M95 75C95 74 95.6579 73 96.3158 73H118.684C119.342 73 120 74 120 75C120 76 119.342 77 118.684 77H96.3158C95.6579 77 95 76 95 75Z" fill="#FFBD2F"/>
<path d="M97 71.5061C97 66.8239 100.808 63 104.514 63H110.69C114.396 63 118 66.8239 118 71.5061V73H97V71.5061Z" fill="white"/>
<path d="M97 78.298V77H118V78.298C118 80.149 116.765 82 115.529 82H99.4706C98.2353 82 97 80.149 97 78.298Z" fill="white"/>
<path d="M219.86 338.6C219.86 340.508 218.542 342.377 216.029 344.121C213.523 345.859 209.882 347.435 205.359 348.762C196.317 351.416 183.811 353.061 169.986 353.061C156.162 353.061 143.656 351.416 134.613 348.762C130.091 347.435 126.449 345.859 123.944 344.121C121.431 342.377 120.112 340.508 120.112 338.6C120.112 336.693 121.431 334.823 123.944 333.08C126.449 331.341 130.091 329.766 134.613 328.438C143.656 325.785 156.162 324.14 169.986 324.14C183.811 324.14 196.317 325.785 205.359 328.438C209.882 329.766 213.523 331.341 216.029 333.08C218.542 334.823 219.86 336.693 219.86 338.6Z" fill="white" stroke="black" stroke-width="0.5"/>
<path d="M219.86 337.511C219.86 339.418 218.542 341.288 216.029 343.031C213.523 344.77 209.882 346.345 205.359 347.673C196.317 350.326 183.811 351.971 169.986 351.971C156.162 351.971 143.656 350.326 134.613 347.673C130.091 346.345 126.449 344.77 123.944 343.031C121.431 341.288 120.112 339.418 120.112 337.511C120.112 335.603 121.431 333.734 123.944 331.99C126.449 330.252 130.091 328.676 134.613 327.349C143.656 324.695 156.162 323.05 169.986 323.05C183.811 323.05 196.317 324.695 205.359 327.349C209.882 328.676 213.523 330.252 216.029 331.99C218.542 333.734 219.86 335.603 219.86 337.511Z" fill="white" stroke="black" stroke-width="0.5"/>
<path d="M203.516 336.966C203.516 338.195 202.656 339.419 200.97 340.577C199.291 341.729 196.846 342.776 193.802 343.66C187.718 345.426 179.297 346.522 169.986 346.522C160.675 346.522 152.255 345.426 146.17 343.66C143.126 342.776 140.681 341.729 139.003 340.577C137.317 339.419 136.457 338.195 136.457 336.966C136.457 335.737 137.317 334.512 139.003 333.354C140.681 332.202 143.126 331.155 146.17 330.271C152.255 328.505 160.675 327.409 169.986 327.409C179.297 327.409 187.718 328.505 193.802 330.271C196.846 331.155 199.291 332.202 200.97 333.354C202.656 334.512 203.516 335.737 203.516 336.966Z" fill="#EFEFEF" stroke="black" stroke-width="0.5"/>
<path d="M275.775 336.399C273.266 337.439 269.176 338.645 263.697 338.645C258.218 338.645 254.127 337.439 251.618 336.399C249.872 335.676 248.851 333.924 248.723 331.945L246.251 293.88H281.142L278.671 331.945C278.542 333.924 277.521 335.676 275.775 336.399Z" fill="white" stroke="black"/>
<path d="M247.352 304.276C247.352 304.276 253.89 306.511 263.697 306.511C273.504 306.511 280.041 304.276 280.041 304.276L278.952 323.275C278.952 323.275 273.504 326.069 263.697 326.069C253.89 326.069 248.441 323.275 248.441 323.275L247.352 304.276Z" fill="black"/>
<path d="M283.06 294.232C283.06 294.903 282.596 295.595 281.627 296.267C280.665 296.934 279.257 297.545 277.495 298.062C273.975 299.096 269.096 299.738 263.697 299.738C258.297 299.738 253.419 299.096 249.898 298.062C248.136 297.545 246.728 296.934 245.767 296.267C244.798 295.595 244.333 294.903 244.333 294.232V292.54H283.06V294.232Z" fill="white" stroke="black" stroke-width="0.5"/>
<path d="M283.06 292.076C283.06 292.747 282.596 293.439 281.627 294.111C280.665 294.779 279.257 295.39 277.495 295.907C273.975 296.94 269.096 297.583 263.697 297.583C258.297 297.583 253.419 296.94 249.898 295.907C248.136 295.39 246.728 294.779 245.767 294.111C244.798 293.439 244.333 292.747 244.333 292.076C244.333 291.405 244.798 290.713 245.767 290.041C246.728 289.374 248.136 288.763 249.898 288.246C253.419 287.213 258.297 286.57 263.697 286.57C269.096 286.57 273.975 287.213 277.495 288.246C279.257 288.763 280.665 289.374 281.627 290.041C282.596 290.713 283.06 291.405 283.06 292.076Z" fill="white" stroke="black" stroke-width="0.5"/>
<path d="M276.522 292.3C276.522 292.607 276.267 292.971 275.618 293.353C274.986 293.726 274.055 294.07 272.882 294.362C270.541 294.945 267.293 295.309 263.696 295.309C260.1 295.309 256.852 294.945 254.511 294.362C253.338 294.07 252.407 293.726 251.775 293.353C251.126 292.971 250.871 292.607 250.871 292.3V289.271H276.522V292.3Z" fill="white" stroke="black" stroke-width="0.5"/>
<path d="M276.522 289.021C276.522 289.329 276.266 289.694 275.618 290.078C274.986 290.451 274.054 290.797 272.882 291.09C270.541 291.675 267.293 292.04 263.696 292.04C260.1 292.04 256.852 291.675 254.511 291.09C253.339 290.797 252.407 290.451 251.775 290.078C251.127 289.694 250.871 289.329 250.871 289.021C250.871 288.712 251.127 288.347 251.775 287.963C252.407 287.59 253.339 287.245 254.511 286.952C256.852 286.366 260.1 286.002 263.696 286.002C267.293 286.002 270.541 286.366 272.882 286.952C274.054 287.245 274.986 287.59 275.618 287.963C276.266 288.347 276.522 288.712 276.522 289.021Z" fill="#EFEFEF" stroke="black" stroke-width="0.5"/>
<defs>
<linearGradient id="paint0_linear" x1="173.255" y1="40.0345" x2="235.366" y2="93.9724" gradientUnits="userSpaceOnUse">
<stop stop-color="white"/>
<stop offset="0.536458" stop-color="white" stop-opacity="0"/>
</linearGradient>
<linearGradient id="paint1_linear" x1="244.143" y1="94.003" x2="263.696" y2="94.003" gradientUnits="userSpaceOnUse">
<stop stop-color="white"/>
<stop offset="1" stop-color="white"/>
</linearGradient>
<linearGradient id="paint2_linear" x1="222.29" y1="93.9727" x2="242.993" y2="93.9727" gradientUnits="userSpaceOnUse">
<stop stop-color="white"/>
<stop offset="1" stop-color="white"/>
</linearGradient>
<linearGradient id="paint3_linear" x1="81.0338" y1="292.174" x2="92.7432" y2="282.19" gradientUnits="userSpaceOnUse">
<stop stop-color="#FEFEFE"/>
<stop offset="1" stop-color="white"/>
</linearGradient>
<linearGradient id="paint4_linear" x1="339.124" y1="240.42" x2="326.393" y2="226.071" gradientUnits="userSpaceOnUse">
<stop stop-color="#FEFEFE"/>
<stop offset="1" stop-color="white"/>
</linearGradient>
</defs>
</svg>
