<svg id="Capa_1" enable-background="new 0 0 512 512" height="512" viewBox="0 0 512 512" width="512" xmlns="http://www.w3.org/2000/svg"><g><path d="m309.411 260.108c0-31.742-25.823-57.566-57.566-57.566s-57.566 25.824-57.566 57.566 25.823 57.566 57.566 57.566 57.566-25.824 57.566-57.566zm-100.114 0c0-23.461 19.087-42.549 42.549-42.549s42.549 19.087 42.549 42.549-19.087 42.549-42.549 42.549-42.549-19.087-42.549-42.549z"/><path d="m359.738 247.008c14.989-6.212 24.622-19.694 24.622-34.157v-5.598c0-14.463-9.664-27.871-24.622-34.158-1.862-.782-3.958-.782-5.819 0-14.957 6.287-24.622 19.695-24.622 34.158v5.598c0 14.463 9.679 27.835 24.622 34.157 2.224.94 3.851.815 5.819 0zm-15.424-34.158v-5.598c0-7.624 4.72-14.651 12.514-18.914 7.794 4.263 12.514 11.29 12.514 18.914v5.598c0 7.624-4.72 14.651-12.514 18.913-7.793-4.262-12.514-11.289-12.514-18.913z"/><path d="m122.801 224.016c6.922 4.226 14.512 6.339 21.839 6.339 7.332 0 14.4-2.116 20.267-6.347l4.54-3.274c11.73-8.459 16.952-24.14 13.303-39.949-.454-1.967-1.681-3.668-3.403-4.72-13.85-8.455-30.378-8.452-42.107.008l-4.54 3.274c-11.731 8.459-16.954 24.141-13.303 39.95.454 1.966 1.681 3.667 3.404 4.719zm18.683-32.489 4.54-3.274c6.185-4.46 14.645-4.74 22.661-.912 1.101 8.815-1.837 16.753-8.021 21.213l-4.54 3.274c-6.185 4.46-14.645 4.741-22.661.912-1.101-8.815 1.838-16.754 8.021-21.213z"/><path d="m469.544 47.484c-14.982-6.066-29.828-13.099-45.157-18.539-3.904-1.386-8.2.657-9.587 4.565-1.386 3.908.657 8.201 4.566 9.588 14.87 5.277 29.608 11.327 43.805 17.984 12.175 7.182 15.747 17.359 10.717 30.529l-18.983 37.972c-72.844-38.78-157.195-55.33-239.314-47.647-4.129.386-7.162 4.047-6.776 8.175.387 4.128 4.027 7.17 8.176 6.776 79.304-7.42 160.885 8.609 231.197 46.129l-11.202 22.404c-112.008-59.99-250.988-59.99-362.996-.002l-11.2-22.4c38.173-20.393 79.194-34.481 122.052-41.884 4.087-.706 6.827-4.591 6.121-8.677-.706-4.087-4.594-6.828-8.677-6.121-44.309 7.653-86.728 22.197-126.216 43.243l-18.985-37.969c-5.03-13.17-1.457-23.347 10.717-30.529 65.231-30.566 135.106-46.064 207.684-46.064 44.705 0 88.998 6.021 131.648 17.895 3.996 1.113 8.135-1.224 9.248-5.219 1.112-3.995-1.225-8.135-5.22-9.247-43.96-12.24-89.609-18.446-135.675-18.446-74.798 0-146.817 15.976-214.057 47.483-18.907 8.861-27.134 32.127-17.776 50.843l76.237 152.476c2.896 3.978 6.254 5.097 10.074 3.357 3.709-1.855 5.212-6.366 3.357-10.074l-32.614-65.228c107.804-57.901 241.757-57.9 349.561.002l-63.39 126.776c-36.689-13.677-77.703 14.636-77.703 53.917 0 19.698 10.198 37.979 26.51 48.465l-37.882 75.761c-9.054 18.102-35.58 18.103-44.635.001l-19.165-38.331c18.79-9.808 30.931-29.383 30.931-51.037 0-41.624-45.162-69.809-82.417-51.934l-32.837-65.674c-1.853-3.709-6.363-5.212-10.074-3.358-3.708 1.854-5.212 6.365-3.357 10.074l103.488 206.978c14.277 28.541 57.089 28.805 71.498-.001l196.084-392.17c11.444-20.572 1.766-42.931-17.776-50.842zm-282.175 304.378c43.4 0 57.976 59.989 19.92 80.156l-38.052-76.104c5.636-2.663 11.801-4.052 18.132-4.052zm116.824 7.689c0-28.143 29.362-49.154 55.92-40.386l-37.65 75.297c-11.275-7.87-18.27-20.898-18.27-34.911z"/></g></svg>