<svg width="512" height="517" viewBox="0 0 512 517" fill="none" xmlns="http://www.w3.org/2000/svg">
<path d="M251.64 0H264.55C288.91 0.41 313.11 4.59 336.35 11.81C330.83 10.99 325.42 9.59 319.91 8.73C281.27 2.05 241.2 4.27 203.4 14.6C168.97 24.08 136.51 40.97 109.47 64.36C65.34 101.95 36.72 156.61 29.57 214.02C24.56 252.47 27.97 292.24 41.12 328.81C47.99 347.94 57.53 366.14 69.54 382.55C70.31 383.55 70.8 384.72 70.68 386.01C70.66 398.35 70.66 410.7 70.66 423.04C79.05 419.54 87.39 415.93 95.76 412.39C117.76 432.87 144.07 448.63 172.41 458.62C199.18 468.11 227.63 472.64 256.01 472.63C294.51 472.99 333.16 462.35 365.58 441.47C404.86 416.51 434.5 378.27 453.19 335.98C467.65 343.64 481.92 351.67 496.36 359.37C484.37 388.49 466.24 414.89 444.65 437.73C419.5 464.15 388.82 485.45 354.85 498.86C325.25 510.76 293.37 516.4 261.54 517H249.62C209.69 515.62 169.99 505.37 134.9 486.14C86.96 460.2 48.1 418.31 25 369.01C9.46 336.08 1.15 299.91 0 263.54V250.41C1.61 193.41 23.03 137.33 59.43 93.49C89.74 56.45 130.73 28.26 176.21 13.32C200.52 5.17 226.06 1.13 251.64 0Z" fill="#185494"/>
<path d="M257.57 26.8701C288.64 24.1501 320.75 27.7901 349.43 40.4701C361.84 46.2101 373.78 53.8201 382.46 64.5501C384.13 66.8201 386.53 69.4901 385.46 72.5301C384.48 75.2301 381.35 75.8401 378.87 76.2801C338.31 83.2201 298.09 92.0701 258.21 102.19C207.96 114.78 158.81 131.29 109.61 147.43C107.41 148.24 104.22 147.62 103.68 144.97C102.85 140.52 104.45 136.12 105.6 131.88C114.43 103.5 133.29 78.6601 157.26 61.2701C186.26 39.9401 222.11 30.0501 257.57 26.8701ZM265.78 32.4801C280.05 33.2401 294.29 36.0901 307.56 41.4401C314.66 44.4401 321.76 48.1401 326.97 53.9601C329.39 56.6601 331.14 60.3301 330.3 64.0301C329.11 70.3801 323.48 74.7301 317.76 76.9401C326.24 74.9901 334.96 73.5301 343.03 70.1801C347.22 68.5701 349.9 63.8001 348.34 59.4301C346.01 53.0101 339.85 49.1101 334.25 45.7801C320.35 38.2201 304.69 34.3601 289.05 32.6201C281.32 31.9201 273.49 31.3801 265.78 32.4801ZM157.57 70.5501C146.79 80.7001 137.35 92.4301 130.53 105.61C127.82 111.1 125.23 116.88 124.84 123.07C124.65 126.04 127.81 128.61 130.65 127.59C132.73 127.03 133.73 124.95 134.13 123.02C137.79 108.92 144.62 95.7901 153.07 83.9801C162.67 70.7501 174.39 58.9401 188.06 49.9201C176.63 54.5701 166.67 62.3101 157.57 70.5501Z" fill="#FAAF18"/>
<path d="M420.44 317.58C423.47 316.96 427.38 315.56 429.92 318.07C432.68 321.44 430.89 326.02 429.84 329.71C419.73 360.67 397.89 387.01 371.1 405.13C352.54 417.79 331.6 426.69 309.97 432.6C270.7 443.45 227.99 442.93 189.45 429.39C179.54 425.73 169.7 421.26 161.6 414.37C159.21 412 156.22 409.53 155.87 405.96C155.83 403.28 158.21 401.53 160.49 400.7C213.14 378.6 267.53 360.95 322.15 344.41C354.71 334.76 387.4 325.47 420.44 317.58ZM398.57 337.55C395.17 338.93 393.91 342.62 392.67 345.75C380.59 375.67 357.9 400.89 329.98 416.93C361.6 404.58 389.09 380.99 404.55 350.6C406.01 347.67 408.07 344.4 406.87 341.01C405.83 337.7 401.65 336.03 398.57 337.55Z" fill="#FAAF18"/>
<path d="M265.78 32.48C273.49 31.38 281.32 31.92 289.05 32.62C304.69 34.36 320.35 38.22 334.25 45.78C339.85 49.11 346.01 53.01 348.34 59.43C349.9 63.8 347.22 68.57 343.03 70.18C334.96 73.53 326.24 74.99 317.76 76.94C323.48 74.73 329.11 70.38 330.3 64.03C331.14 60.33 329.39 56.66 326.97 53.96C321.76 48.14 314.66 44.44 307.56 41.44C294.29 36.09 280.05 33.24 265.78 32.48Z" fill="white"/>
<path d="M157.57 70.5499C166.67 62.3099 176.63 54.5699 188.06 49.9199C174.39 58.9399 162.67 70.7499 153.07 83.9799C144.62 95.7899 137.79 108.92 134.13 123.02C133.73 124.95 132.73 127.03 130.65 127.59C127.81 128.61 124.65 126.04 124.84 123.07C125.23 116.88 127.82 111.1 130.53 105.61C137.35 92.4299 146.79 80.6999 157.57 70.5499Z" fill="white"/>
<path d="M398.57 337.55C401.65 336.03 405.83 337.7 406.87 341.01C408.07 344.4 406.01 347.67 404.55 350.6C389.09 380.99 361.6 404.58 329.98 416.93C357.9 400.89 380.59 375.67 392.67 345.75C393.91 342.62 395.17 338.93 398.57 337.55Z" fill="white"/>
<path d="M388.22 93.5699C399.11 91.7999 409.93 89.5299 420.9 88.3199C429.08 87.5499 438.18 89.8499 443.51 96.4899C448.29 102.33 448.79 110.65 446.51 117.62C444.34 124.31 439.34 129.64 433.65 133.57C438.62 139.21 443.67 144.77 448.59 150.45C452.01 154.22 452.51 160.26 449.61 164.47C445.53 170.44 435.9 171.41 430.98 165.94C424.21 158.16 417.7 150.16 411.01 142.31C410.95 149.21 411.08 156.11 410.96 163.01C411.05 167.91 407.72 172.6 402.99 173.98C398.15 175.34 393.13 175.99 388.21 177C388.21 149.19 388.19 121.38 388.22 93.5699ZM410.82 106.87C410.9 114.37 410.91 121.87 411.03 129.37C416.35 126.92 421.76 123.23 423.71 117.43C424.73 114.08 424.75 109.56 421.59 107.34C418.35 105.34 414.33 106.21 410.82 106.87Z" fill="#EE1D22"/>
<path d="M332.1 104.97C348.76 101.32 365.45 97.7898 382.24 94.8298C382.17 98.9098 382.45 103 382.06 107.06C381.8 110.33 379.48 113.37 376.21 114.11C369.35 115.83 362.35 117 355.43 118.47C355.41 122.79 355.42 127.11 355.42 131.43C363.62 129.77 371.79 127.94 379.98 126.19C379.39 131.99 382.07 140.38 375.66 143.75C369.14 146.07 362.15 146.83 355.43 148.43C355.41 153.86 355.42 159.29 355.42 164.73C364.66 162.73 373.9 160.7 383.12 158.61C382.89 163.57 383.77 168.7 382.29 173.52C381.12 177.09 377.62 179.21 374.08 179.83C360.02 183.01 345.97 186.22 331.93 189.43C331.98 161.28 332.04 133.13 332.1 104.97Z" fill="#EE1D22"/>
<path d="M295.51 111.67C303.94 110.56 313.35 109.6 321.06 113.94C327.83 117.65 327.5 129.09 320.5 132.32C315.22 134.73 309.49 132.29 304 132.58C295.92 132.58 288.03 137.11 284.18 144.25C279.8 152.3 278.95 162.16 281.37 170.96C282.58 175.88 286.69 180.17 291.91 180.57C296.25 180.89 301.82 180.3 304.33 176.22C305.25 172.56 304.53 168.67 304.74 164.92C300.99 165.64 295.86 167.58 293.16 163.7C290.86 159.51 292.38 154.41 291.95 149.85C303.46 147.24 314.97 144.59 326.48 141.96C326.5 152.64 326.48 163.31 326.49 173.99C326.59 178.95 325.13 184.04 321.88 187.85C316.17 194.08 308.07 197.45 300.03 199.49C289.9 202.15 278.36 201.62 269.48 195.63C261.5 190.36 256.96 181.15 255.62 171.88C253.99 160.26 255.45 148.06 260.51 137.42C266.85 123.59 280.56 113.89 295.51 111.67Z" fill="#EE1D22"/>
<path d="M191.14 142.29C201.7 138.76 212.26 135.11 223.13 132.6C231.09 130.86 240.52 131.43 246.66 137.38C251.7 142.11 252.69 149.6 251.53 156.12C250.19 165.25 244.37 172.98 237.44 178.77C242.35 183.47 247.3 188.13 252.19 192.85C256.3 196.71 257.21 203.45 254.2 208.23C250.49 214.56 240.59 215.93 235.39 210.67C228.3 203.65 221.43 196.42 214.45 189.3C214.38 197.18 214.57 205.07 214.36 212.95C214.14 218.49 209.72 222.92 204.73 224.75C200.23 226.38 195.67 227.87 191.13 229.4C191.12 200.37 191.12 171.33 191.14 142.29ZM214.41 151.96C214.44 160.04 214.26 168.12 214.3 176.2C220.06 172.59 225.86 167.75 227.57 160.87C228.32 157.55 228.12 153.03 224.76 151.18C221.42 149.67 217.68 150.83 214.41 151.96Z" fill="#EE1D22"/>
<path d="M161.16 151.57C166.97 149.93 172.68 146.48 178.88 147.4C182.87 148.09 184.66 152.36 184.44 156.03C184.48 172.03 184.47 188.02 184.45 204.02C184.38 213.62 182.63 223.78 176.54 231.51C170.53 239.18 161.16 243.23 151.94 245.52C144.56 247.3 136.01 247.09 129.79 242.25C123.93 237.77 121.55 230.12 121.54 222.98C121.48 203.62 121.53 184.27 121.51 164.91C125.44 163.38 129.41 161.96 133.42 160.65C136.32 159.73 139.88 159.55 142.34 161.66C144.73 163.7 145 167.07 145.01 170C145.01 185 145.01 200 145 215C145.02 217.69 145.19 220.73 147.17 222.79C149.71 225.24 153.81 224.25 156.45 222.47C160.35 219.65 161.06 214.43 161.13 209.96C161.18 190.5 161.11 171.03 161.16 151.57Z" fill="#EE1D22"/>
<path d="M84.44 178.7C91.8 175.96 100.47 174.44 107.77 178.15C113.56 181.01 116.68 187.62 116.4 193.92C116.5 202.95 111.28 211.12 104.37 216.57C111.59 217.93 117.99 223.62 119.27 231C120.5 239.27 117.9 248.06 112.24 254.24C105.8 261.43 96.78 265.42 88.07 269.11C77.41 273.62 66.79 278.23 56.11 282.67C56.12 251.79 56.1 220.91 56.11 190.02C65.49 186.1 74.98 182.43 84.44 178.7ZM79.6 196.95C79.61 203.56 79.59 210.18 79.61 216.79C84.62 214.95 89.85 212.02 91.8 206.72C93.07 203.26 93.55 198.33 90.17 195.9C86.81 193.98 82.84 195.51 79.6 196.95ZM79.78 231.13C79.79 238.67 79.77 246.22 79.79 253.76C85.01 251.46 90.97 249.01 93.45 243.44C95.25 239.32 95.42 233.42 91.58 230.39C87.98 227.84 83.37 229.48 79.78 231.13Z" fill="#EE1D22"/>
<path d="M417.02 178.99C431.41 176.34 446.86 176.7 460.43 182.63C468.34 186.49 470.79 197.24 466.86 204.77C464.46 209.9 458.73 213.3 453.05 212.47C447.04 211.53 441.12 209.82 434.98 209.98C425.77 210.17 416.02 211.8 408.61 217.68C400.2 224.09 395.88 234.65 395.34 245.01C395.02 252.58 395.79 260.61 399.75 267.24C402.67 272.19 408.19 275.29 413.88 275.64C419.92 276.02 426.35 274.91 431.38 271.39C436.12 267.98 433.48 261.47 434.15 256.59C429.6 257.69 424.79 259.51 420.13 258.01C416.42 256.73 414.63 252.67 414.33 249.02C413.98 244.12 414.24 239.21 414.17 234.31C432.23 230.43 450.28 226.5 468.33 222.58C468.43 237.7 468.65 252.84 468.27 267.96C467.98 276.34 464.9 284.89 458.59 290.6C447.28 300.99 432.08 306.2 417.03 307.91C401.68 309.58 385.05 306.21 373.24 295.79C363.29 287.12 358.25 274.03 357.28 261.09C356.06 243.69 359.02 225.46 368.5 210.57C379.18 193.7 397.65 182.74 417.02 178.99Z" fill="#EE1D22"/>
<path d="M327.41 204.35C334.89 201.01 343.11 199.81 351.03 197.89C351.02 234.59 351.06 271.3 351.01 308C351.05 314.2 348.17 320.42 343.1 324.08C335.09 329.77 322.75 329.65 315.89 322.14C302.86 307.37 290.03 292.43 277.05 277.61C276.94 293.06 277.3 308.51 277.11 323.95C277.07 331.98 273.6 340.35 266.39 344.45C258.46 348.94 249.39 350.76 240.93 354C240.96 311.46 240.84 268.92 240.99 226.39C247.71 224.46 254.37 222.29 261.1 220.38C267.41 218.71 275.13 219.01 279.89 224.04C292.7 237.15 304.32 251.35 315.96 265.48C316.02 251.98 315.88 238.47 316.03 224.96C316.1 216.83 319.58 207.89 327.41 204.35Z" fill="#EE1D22"/>
<path d="M206.92 236.56C214.23 233.82 221.68 231.46 229.17 229.25C229.18 261.18 229.17 293.11 229.17 325.04C228.93 333.05 230.02 341.36 227.4 349.1C225.11 356.05 218.92 360.81 212.37 363.5C204.59 366.7 196.62 369.45 188.68 372.23C188.66 336.83 188.66 301.42 188.67 266.01C188.73 259.04 189.65 251.65 193.8 245.83C196.96 241.34 201.85 238.44 206.92 236.56Z" fill="#EE1D22"/>
<path d="M147.21 261.99C150.7 255.83 157.9 251.83 165.01 252.67C170.94 253.33 176.92 256.59 179.58 262.11C182.18 267.25 181.36 273.6 178.32 278.38C168.95 293.27 159.5 308.11 150.1 322.98C157.89 330.82 165.68 338.66 173.47 346.49C175.44 348.53 177.66 350.38 179.21 352.78C183.49 359.73 183.07 369.45 177.69 375.7C173.34 380.72 166.7 383.89 160.01 383.52C154.44 383.25 149.1 380.67 145.25 376.67C135.04 365.88 124.91 355 114.68 344.22C114.68 357.16 114.67 370.11 114.68 383.05C114.67 387.54 114.35 392.23 112.22 396.28C110.4 399.69 107.15 402.1 103.61 403.5C94.38 407.33 85.18 411.22 75.93 414.99C75.97 372.58 76.04 330.18 76.09 287.77C89.09 282.53 102.02 277.11 115.02 271.85C115.04 286.84 115.01 301.84 115.03 316.83C125.78 298.57 136.47 280.27 147.21 261.99Z" fill="#EE1D22"/>
</svg>
