<svg width="500" height="500" viewBox="0 0 500 500" fill="none" xmlns="http://www.w3.org/2000/svg">
<circle cx="250" cy="244.214" r="181" stroke="black" stroke-width="2" stroke-linecap="round" stroke-dasharray="10 20"/>
<circle cx="249.999" cy="244.213" r="166.785" stroke="#FFAC2F" stroke-width="2" stroke-linecap="round"/>
<circle cx="249.998" cy="244.214" r="152.571" fill="#FFAC2F"/>
<g filter="url(#filter0_d)">
<path d="M156.186 85.9555C156.186 70.7799 168.453 58.4775 183.585 58.4775H322.105C337.238 58.4775 349.505 70.7799 349.505 85.9555V423.324C349.505 438.5 337.238 450.802 322.105 450.802H183.585C168.453 450.802 156.186 438.5 156.186 423.324V85.9555Z" fill="#282828"/>
</g>
<path fill-rule="evenodd" clip-rule="evenodd" d="M155.71 97.3291C156.495 97.3291 157.131 97.9848 157.131 98.7936V111.975C157.131 112.783 156.495 113.439 155.71 113.439C154.924 113.439 154.288 112.783 154.288 111.975V98.7936C154.288 97.9848 154.924 97.3291 155.71 97.3291Z" fill="#FDFDFD"/>
<path d="M156.186 76.478C156.186 61.3023 168.453 49 183.585 49H322.105C337.238 49 349.505 61.3023 349.505 76.478V413.847C349.505 429.022 337.238 441.325 322.105 441.325H183.585C168.453 441.325 156.186 429.022 156.186 413.847V76.478Z" fill="black"/>
<path d="M168.556 95.4854H337.132V396.731H168.556V95.4854Z" fill="white" stroke="#272727" stroke-width="2"/>
<path d="M282.322 208.206H223.357C218.682 208.206 214.934 211.997 214.934 216.63V275.594C214.934 280.227 218.682 284.018 223.357 284.018H282.322C286.954 284.018 290.745 280.227 290.745 275.594V216.63C290.745 211.997 286.954 208.206 282.322 208.206ZM273.898 250.324H257.051V267.171H248.628V250.324H231.781V241.9H248.628V225.053H257.051V241.9H273.898V250.324Z" fill="#FFAC2F"/>
<path fill-rule="evenodd" clip-rule="evenodd" d="M234.84 74.5867C234.84 73.54 235.628 72.6914 236.601 72.6914H269.089C270.062 72.6914 270.85 73.54 270.85 74.5867C270.85 75.6334 270.062 76.482 269.089 76.482H236.601C235.628 76.482 234.84 75.6334 234.84 74.5867Z" fill="#444444"/>
<path d="M273.689 441.325C273.689 442.372 272.859 443.22 271.835 443.22H232.899C231.875 443.22 231.045 442.372 231.045 441.325H273.689Z" fill="#6B6B6B"/>
<path d="M254.742 64.6367C254.742 65.9451 253.893 67.0058 252.846 67.0058C251.8 67.0058 250.951 65.9451 250.951 64.6367C250.951 63.3283 251.8 62.2676 252.846 62.2676C253.893 62.2676 254.742 63.3283 254.742 64.6367Z" fill="#444444"/>
<path fill-rule="evenodd" clip-rule="evenodd" d="M252.366 428.626C258.654 428.626 263.751 423.704 263.751 417.633C263.751 411.562 258.654 406.641 252.366 406.641C246.078 406.641 240.981 411.562 240.981 417.633C240.981 423.704 246.078 428.626 252.366 428.626ZM252.366 430.9C259.955 430.9 266.107 424.96 266.107 417.633C266.107 410.306 259.955 404.366 252.366 404.366C244.777 404.366 238.625 410.306 238.625 417.633C238.625 424.96 244.777 430.9 252.366 430.9Z" fill="#444444"/>
<path d="M222.518 75.0619C222.518 76.8937 221.033 78.3786 219.202 78.3786C217.37 78.3786 215.885 76.8937 215.885 75.0619C215.885 73.2301 217.37 71.7451 219.202 71.7451C221.033 71.7451 222.518 73.2301 222.518 75.0619Z" fill="#444444"/>
<defs>
<filter id="filter0_d" x="124.186" y="38.4775" width="257.319" height="456.325" filterUnits="userSpaceOnUse" color-interpolation-filters="sRGB">
<feFlood flood-opacity="0" result="BackgroundImageFix"/>
<feColorMatrix in="SourceAlpha" type="matrix" values="0 0 0 0 0 0 0 0 0 0 0 0 0 0 0 0 0 0 127 0"/>
<feOffset dy="12"/>
<feGaussianBlur stdDeviation="16"/>
<feColorMatrix type="matrix" values="0 0 0 0 0 0 0 0 0 0 0 0 0 0 0 0 0 0 0.16 0"/>
<feBlend mode="normal" in2="BackgroundImageFix" result="effect1_dropShadow"/>
<feBlend mode="normal" in="SourceGraphic" in2="effect1_dropShadow" result="shape"/>
</filter>
</defs>
</svg>
