<svg width="1366" height="560" viewBox="0 0 1366 560" fill="none" xmlns="http://www.w3.org/2000/svg">
<mask id="mask0" mask-type="alpha" maskUnits="userSpaceOnUse" x="0" y="0" width="1366" height="560">
<path d="M0 0H1366V560H0V0Z" fill="#FFAC2F"/>
<path d="M0 0H1366V560H0V0Z" stroke="white"/>
</mask>
<g mask="url(#mask0)">
<path d="M0 0H1366V560H0V0Z" fill="#FFAC2F"/>
<path d="M0 0H1366V560H0V0Z" stroke="white"/>
<path d="M154.5 -1.34961C115 41.1504 143.5 111.15 97 122.651C60.5967 131.654 69 85.6505 -4.37798e-05 85.6505" stroke="black" stroke-width="5"/>
<path d="M73 501.623C52.6 474.823 15.5 496.956 0 510.623V560.123H177.5C190.7 497.723 161 503.456 144.5 514.123C128.833 521.623 93.4 528.423 73 501.623Z" fill="#333333"/>
<path d="M1319.59 476.546C1341.53 469.673 1341.47 506 1365.97 487V360C1352.06 360 1311.48 379.747 1325 410.335C1332.96 428.332 1296.02 432.405 1296.02 457.96C1295.5 468.802 1306.97 480.5 1319.59 476.546Z" fill="#212121"/>
<path d="M880 -3C856.72 40.9327 794.95 108.848 738.251 76.5958C703.072 56.5855 751.184 28.5282 686 -3" stroke="white" stroke-width="5"/>
</g>
</svg>
