<svg width="200" height="200" viewBox="0 0 200 200" fill="none" xmlns="http://www.w3.org/2000/svg">
<path fill-rule="evenodd" clip-rule="evenodd" d="M99.4874 0.00128634C99.6582 0.000429094 99.829 0 100 0C100.171 0 100.342 0.000429153 100.513 0.00128646C101.059 0.00403158 101.5 0.449534 101.498 0.996343C101.495 1.54315 101.049 1.9842 100.503 1.98146C100.335 1.98062 100.168 1.9802 100 1.9802C99.8324 1.9802 99.6648 1.98062 99.4974 1.98146C98.9505 1.9842 98.505 1.54315 98.5023 0.996343C98.4996 0.449533 98.9406 0.00403122 99.4874 0.00128634ZM90.3969 1.44489C90.4547 1.98864 90.0607 2.4763 89.517 2.5341C89.1843 2.56947 88.8521 2.6065 88.5204 2.64519C87.9773 2.70854 87.4856 2.31959 87.4223 1.77646C87.3589 1.23333 87.7479 0.741672 88.291 0.678322C88.6294 0.638856 88.9683 0.601079 89.3077 0.565C89.8514 0.507195 90.3391 0.901134 90.3969 1.44489ZM109.603 1.44489C109.661 0.901137 110.149 0.507199 110.692 0.565004C111.032 0.601083 111.371 0.63886 111.709 0.678326C112.252 0.741677 112.641 1.23333 112.578 1.77646C112.514 2.3196 112.023 2.70854 111.48 2.64519C111.148 2.6065 110.816 2.56947 110.483 2.53411C109.939 2.4763 109.545 1.98864 109.603 1.44489ZM79.4179 3.12721C79.5364 3.66103 79.1997 4.18983 78.6659 4.30832C78.3401 4.38062 78.015 4.45454 77.6905 4.53007C77.1579 4.65403 76.6256 4.32278 76.5017 3.7902C76.3777 3.25761 76.709 2.72538 77.2416 2.60142C77.5727 2.52435 77.9044 2.44893 78.2368 2.37516C78.7706 2.25668 79.2994 2.59338 79.4179 3.12721ZM120.582 3.12721C120.701 2.59339 121.229 2.25669 121.763 2.37517C122.096 2.44894 122.427 2.52436 122.758 2.60143C123.291 2.72539 123.622 3.25762 123.498 3.7902C123.374 4.32278 122.842 4.65404 122.31 4.53008C121.985 4.45454 121.66 4.38062 121.334 4.30832C120.8 4.18984 120.464 3.66104 120.582 3.12721ZM68.7008 6.03391C68.8787 6.55096 68.6038 7.11437 68.0868 7.29232C67.7718 7.40072 67.4576 7.51068 67.1441 7.62219C66.6289 7.80544 66.0627 7.53634 65.8794 7.02115C65.6962 6.50595 65.9653 5.93975 66.4805 5.7565C66.8003 5.64272 67.121 5.53052 67.4424 5.41991C67.9594 5.24196 68.5228 5.51686 68.7008 6.03391ZM131.299 6.03392C131.477 5.51687 132.041 5.24197 132.558 5.41992C132.879 5.53053 133.2 5.64273 133.52 5.75651C134.035 5.93976 134.304 6.50596 134.121 7.02116C133.937 7.53636 133.371 7.80545 132.856 7.6222C132.542 7.51069 132.228 7.40073 131.913 7.29233C131.396 7.11438 131.121 6.55097 131.299 6.03392ZM58.3813 10.1304C58.6164 10.6241 58.4067 11.2149 57.913 11.45C57.612 11.5934 57.3118 11.7382 57.0124 11.8845C56.5212 12.1246 55.9282 11.921 55.6881 11.4298C55.448 10.9385 55.6516 10.3456 56.1429 10.1054C56.4483 9.95616 56.7546 9.80839 57.0617 9.66214C57.5554 9.42706 58.1462 9.63673 58.3813 10.1304ZM141.619 10.1304C141.854 9.63674 142.445 9.42708 142.938 9.66216C143.245 9.80841 143.552 9.95618 143.857 10.1055C144.348 10.3456 144.552 10.9385 144.312 11.4298C144.072 11.921 143.479 12.1246 142.988 11.8845C142.688 11.7382 142.388 11.5934 142.087 11.45C141.593 11.215 141.384 10.6242 141.619 10.1304ZM48.5861 15.3631C48.8751 15.8273 48.7331 16.4379 48.2689 16.7269C47.9858 16.9031 47.7036 17.0808 47.4224 17.2598C46.9612 17.5536 46.3492 17.4178 46.0555 16.9565C45.7618 16.4953 45.8976 15.8833 46.3588 15.5896C46.6457 15.4069 46.9335 15.2256 47.2224 15.0458C47.6866 14.7568 48.2972 14.8989 48.5861 15.3631ZM151.414 15.3631C151.703 14.8989 152.313 14.7568 152.778 15.0458C153.067 15.2257 153.354 15.4069 153.641 15.5896C154.102 15.8833 154.238 16.4953 153.945 16.9565C153.651 17.4178 153.039 17.5536 152.578 17.2599C152.296 17.0808 152.014 16.9031 151.731 16.7269C151.267 16.4379 151.125 15.8273 151.414 15.3631ZM39.4389 21.6596C39.7779 22.0886 39.7049 22.7112 39.2759 23.0503C39.0144 23.2569 38.754 23.4649 38.4946 23.6741C38.0691 24.0175 37.4457 23.9509 37.1024 23.5253C36.759 23.0997 36.8256 22.4764 37.2512 22.133C37.5157 21.9196 37.7814 21.7074 38.0482 21.4966C38.4772 21.1576 39.0998 21.2306 39.4389 21.6596ZM160.561 21.6596C160.9 21.2306 161.523 21.1576 161.952 21.4966C162.219 21.7074 162.484 21.9196 162.749 22.133C163.174 22.4764 163.241 23.0998 162.898 23.5253C162.554 23.9509 161.931 24.0175 161.505 23.6741C161.246 23.4649 160.986 23.2569 160.724 23.0503C160.295 22.7113 160.222 22.0886 160.561 21.6596ZM31.0511 28.9367C31.4358 29.3253 31.4326 29.9522 31.044 30.3369C30.8071 30.5714 30.5714 30.8071 30.3369 31.0439C29.9522 31.4326 29.3253 31.4357 28.9367 31.051C28.5481 30.6663 28.5449 30.0395 28.9296 29.6508C29.1688 29.4092 29.4092 29.1688 29.6509 28.9296C30.0395 28.5449 30.6664 28.5481 31.0511 28.9367ZM168.949 28.9367C169.334 28.5481 169.961 28.5449 170.349 28.9296C170.591 29.1688 170.831 29.4092 171.07 29.6509C171.455 30.0395 171.452 30.6664 171.063 31.0511C170.675 31.4358 170.048 31.4326 169.663 31.044C169.429 30.8071 169.193 30.5714 168.956 30.3369C168.567 29.9522 168.564 29.3253 168.949 28.9367ZM23.5253 37.1023C23.9509 37.4457 24.0175 38.069 23.6741 38.4946C23.4649 38.7539 23.2569 39.0144 23.0503 39.2759C22.7113 39.7049 22.0886 39.7779 21.6596 39.4388C21.2306 39.0998 21.1576 38.4772 21.4966 38.0481C21.7074 37.7814 21.9196 37.5157 22.133 37.2512C22.4764 36.8256 23.0998 36.759 23.5253 37.1023ZM176.475 37.1024C176.9 36.759 177.524 36.8256 177.867 37.2512C178.08 37.5157 178.293 37.7814 178.503 38.0482C178.842 38.4772 178.769 39.0998 178.34 39.4389C177.911 39.7779 177.289 39.7049 176.95 39.2759C176.743 39.0144 176.535 38.754 176.326 38.4946C175.983 38.0691 176.049 37.4457 176.475 37.1024ZM16.9565 46.0555C17.4178 46.3492 17.5536 46.9612 17.2599 47.4224C17.0808 47.7036 16.9031 47.9857 16.7269 48.2689C16.4379 48.7331 15.8273 48.8751 15.3631 48.5861C14.8989 48.2971 14.7568 47.6865 15.0458 47.2223C15.2257 46.9335 15.4069 46.6456 15.5896 46.3588C15.8833 45.8975 16.4953 45.7617 16.9565 46.0555ZM183.043 46.0555C183.505 45.7618 184.117 45.8976 184.41 46.3588C184.593 46.6457 184.774 46.9335 184.954 47.2224C185.243 47.6866 185.101 48.2972 184.637 48.5861C184.173 48.8751 183.562 48.7331 183.273 48.2689C183.097 47.9858 182.919 47.7036 182.74 47.4224C182.446 46.9612 182.582 46.3492 183.043 46.0555ZM11.4298 55.6881C11.921 55.9282 12.1246 56.5211 11.8845 57.0124C11.7382 57.3118 11.5934 57.6119 11.45 57.913C11.215 58.4067 10.6242 58.6164 10.1304 58.3813C9.63674 58.1462 9.42708 57.5554 9.66216 57.0617C9.80841 56.7545 9.95618 56.4483 10.1055 56.1428C10.3456 55.6516 10.9385 55.448 11.4298 55.6881ZM188.57 55.6881C189.062 55.448 189.654 55.6516 189.895 56.1429C190.044 56.4483 190.192 56.7546 190.338 57.0617C190.573 57.5554 190.363 58.1462 189.87 58.3813C189.376 58.6164 188.785 58.4067 188.55 57.913C188.407 57.612 188.262 57.3118 188.116 57.0124C187.875 56.5212 188.079 55.9282 188.57 55.6881ZM7.02116 65.8794C7.53636 66.0626 7.80545 66.6288 7.6222 67.1441C7.51069 67.4576 7.40073 67.7718 7.29233 68.0867C7.11438 68.6038 6.55097 68.8787 6.03392 68.7007C5.51687 68.5228 5.24197 67.9594 5.41992 67.4423C5.53053 67.121 5.64273 66.8003 5.75651 66.4804C5.93976 65.9652 6.50596 65.6961 7.02116 65.8794ZM192.979 65.8794C193.494 65.6962 194.06 65.9653 194.244 66.4805C194.357 66.8003 194.469 67.121 194.58 67.4424C194.758 67.9594 194.483 68.5228 193.966 68.7008C193.449 68.8787 192.886 68.6038 192.708 68.0868C192.599 67.7718 192.489 67.4576 192.378 67.1441C192.195 66.6289 192.464 66.0627 192.979 65.8794ZM3.7902 76.5017C4.32278 76.6256 4.65404 77.1578 4.53008 77.6904C4.45454 78.0149 4.38062 78.3401 4.30832 78.6658C4.18984 79.1997 3.66104 79.5364 3.12721 79.4179C2.59339 79.2994 2.25669 78.7706 2.37517 78.2368C2.44894 77.9044 2.52436 77.5726 2.60143 77.2415C2.72539 76.7089 3.25762 76.3777 3.7902 76.5017ZM196.21 76.5017C196.742 76.3777 197.275 76.709 197.399 77.2416C197.476 77.5727 197.551 77.9044 197.625 78.2368C197.743 78.7706 197.407 79.2994 196.873 79.4179C196.339 79.5364 195.81 79.1997 195.692 78.6659C195.619 78.3401 195.545 78.015 195.47 77.6905C195.346 77.1579 195.677 76.6256 196.21 76.5017ZM1.77646 87.4223C2.3196 87.4856 2.70854 87.9773 2.64519 88.5204C2.6065 88.8521 2.56947 89.1843 2.53411 89.5169C2.4763 90.0607 1.98864 90.4546 1.44489 90.3968C0.901137 90.339 0.507199 89.8514 0.565004 89.3076C0.601083 88.9682 0.63886 88.6294 0.678326 88.291C0.741677 87.7479 1.23333 87.3589 1.77646 87.4223ZM198.224 87.4223C198.767 87.3589 199.258 87.7479 199.322 88.291C199.361 88.6294 199.399 88.9683 199.435 89.3077C199.493 89.8514 199.099 90.3391 198.555 90.3969C198.011 90.4547 197.524 90.0607 197.466 89.517C197.431 89.1843 197.393 88.8521 197.355 88.5204C197.291 87.9773 197.68 87.4856 198.224 87.4223ZM0.996343 98.5023C1.54315 98.505 1.9842 98.9505 1.98146 99.4973C1.98062 99.6648 1.9802 99.8323 1.9802 100C1.9802 100.168 1.98062 100.335 1.98146 100.503C1.9842 101.049 1.54315 101.495 0.996343 101.498C0.449533 101.5 0.00403122 101.059 0.00128634 100.513C0.000429094 100.342 0 100.171 0 100C0 99.829 0.000429153 99.6582 0.00128646 99.4874C0.00403158 98.9406 0.449534 98.4995 0.996343 98.5023ZM199.004 98.5023C199.55 98.4996 199.996 98.9406 199.999 99.4874C200 99.6582 200 99.829 200 100C200 100.107 200 100.214 199.999 100.321C199.999 100.385 199.999 100.449 199.999 100.513C199.996 101.059 199.55 101.5 199.004 101.498C198.457 101.495 198.016 101.049 198.019 100.503C198.019 100.335 198.02 100.168 198.02 100C198.02 99.8324 198.019 99.6648 198.019 99.4974C198.016 98.9505 198.457 98.505 199.004 98.5023ZM1.44489 109.603C1.98864 109.545 2.4763 109.939 2.5341 110.483C2.56947 110.816 2.6065 111.148 2.64519 111.48C2.70854 112.023 2.31959 112.514 1.77646 112.578C1.23333 112.641 0.741672 112.252 0.678322 111.709C0.638856 111.371 0.601079 111.032 0.565 110.692C0.507195 110.149 0.901134 109.661 1.44489 109.603ZM198.555 109.603C199.099 109.661 199.493 110.149 199.435 110.692C199.399 111.032 199.361 111.371 199.322 111.709C199.258 112.252 198.767 112.641 198.224 112.578C197.68 112.514 197.291 112.023 197.355 111.48C197.393 111.148 197.431 110.816 197.466 110.483C197.524 109.939 198.011 109.545 198.555 109.603ZM3.12721 120.582C3.66103 120.464 4.18983 120.8 4.30832 121.334C4.38062 121.66 4.45454 121.985 4.53007 122.31C4.65403 122.842 4.32278 123.374 3.7902 123.498C3.25761 123.622 2.72538 123.291 2.60142 122.758C2.52435 122.427 2.44893 122.096 2.37516 121.763C2.25668 121.229 2.59338 120.701 3.12721 120.582ZM196.873 120.582C197.407 120.701 197.743 121.229 197.625 121.763C197.551 122.096 197.476 122.427 197.399 122.758C197.275 123.291 196.742 123.622 196.21 123.498C195.677 123.374 195.346 122.842 195.47 122.31C195.545 121.985 195.619 121.66 195.692 121.334C195.81 120.8 196.339 120.464 196.873 120.582ZM6.03391 131.299C6.55096 131.121 7.11437 131.396 7.29232 131.913C7.40072 132.228 7.51068 132.542 7.62219 132.856C7.80544 133.371 7.53634 133.937 7.02115 134.121C6.50595 134.304 5.93975 134.035 5.7565 133.52C5.64272 133.2 5.53052 132.879 5.41991 132.558C5.24196 132.041 5.51686 131.477 6.03391 131.299ZM193.966 131.299C194.483 131.477 194.758 132.041 194.58 132.558C194.469 132.879 194.357 133.2 194.243 133.52C194.06 134.035 193.494 134.304 192.979 134.121C192.464 133.937 192.195 133.371 192.378 132.856C192.489 132.542 192.599 132.228 192.708 131.913C192.886 131.396 193.449 131.121 193.966 131.299ZM10.1304 141.619C10.6241 141.384 11.2149 141.593 11.45 142.087C11.5934 142.388 11.7382 142.688 11.8845 142.988C12.1246 143.479 11.921 144.072 11.4298 144.312C10.9385 144.552 10.3456 144.348 10.1054 143.857C9.95616 143.552 9.80839 143.245 9.66214 142.938C9.42706 142.445 9.63673 141.854 10.1304 141.619ZM189.87 141.619C190.363 141.854 190.573 142.445 190.338 142.938C190.192 143.245 190.044 143.552 189.895 143.857C189.654 144.348 189.062 144.552 188.57 144.312C188.079 144.072 187.875 143.479 188.115 142.988C188.262 142.688 188.407 142.388 188.55 142.087C188.785 141.593 189.376 141.384 189.87 141.619ZM15.3631 151.414C15.8273 151.125 16.4379 151.267 16.7269 151.731C16.9031 152.014 17.0808 152.296 17.2598 152.578C17.5536 153.039 17.4178 153.651 16.9565 153.945C16.4953 154.238 15.8833 154.102 15.5896 153.641C15.4069 153.354 15.2256 153.066 15.0458 152.778C14.7568 152.313 14.8989 151.703 15.3631 151.414ZM184.637 151.414C185.101 151.703 185.243 152.313 184.954 152.778C184.774 153.067 184.593 153.354 184.41 153.641C184.117 154.102 183.505 154.238 183.043 153.945C182.582 153.651 182.446 153.039 182.74 152.578C182.919 152.296 183.097 152.014 183.273 151.731C183.562 151.267 184.173 151.125 184.637 151.414ZM21.6596 160.561C22.0886 160.222 22.7112 160.295 23.0503 160.724C23.2569 160.986 23.4649 161.246 23.6741 161.505C24.0175 161.931 23.9509 162.554 23.5253 162.898C23.0997 163.241 22.4764 163.174 22.133 162.749C21.9196 162.484 21.7074 162.219 21.4966 161.952C21.1576 161.523 21.2306 160.9 21.6596 160.561ZM178.34 160.561C178.769 160.9 178.842 161.523 178.503 161.952C178.293 162.219 178.08 162.484 177.867 162.749C177.524 163.174 176.9 163.241 176.475 162.898C176.049 162.554 175.982 161.931 176.326 161.505C176.535 161.246 176.743 160.986 176.95 160.724C177.289 160.295 177.911 160.222 178.34 160.561ZM28.9367 168.949C29.3253 168.564 29.9522 168.567 30.3369 168.956C30.5714 169.193 30.8071 169.429 31.0439 169.663C31.4326 170.048 31.4357 170.675 31.051 171.063C30.6663 171.452 30.0395 171.455 29.6508 171.07C29.4092 170.831 29.1688 170.591 28.9296 170.349C28.5449 169.961 28.5481 169.334 28.9367 168.949ZM171.063 168.949C171.452 169.334 171.455 169.961 171.07 170.349C170.831 170.591 170.591 170.831 170.349 171.07C169.961 171.455 169.334 171.452 168.949 171.063C168.564 170.675 168.567 170.048 168.956 169.663C169.193 169.429 169.429 169.193 169.663 168.956C170.048 168.567 170.675 168.564 171.063 168.949ZM37.1023 176.475C37.4457 176.049 38.069 175.982 38.4946 176.326C38.7539 176.535 39.0144 176.743 39.2759 176.95C39.7049 177.289 39.7779 177.911 39.4388 178.34C39.0998 178.769 38.4772 178.842 38.0481 178.503C37.7814 178.293 37.5157 178.08 37.2512 177.867C36.8256 177.524 36.759 176.9 37.1023 176.475ZM162.898 176.475C163.241 176.9 163.174 177.524 162.749 177.867C162.484 178.08 162.219 178.293 161.952 178.503C161.523 178.842 160.9 178.769 160.561 178.34C160.222 177.911 160.295 177.289 160.724 176.95C160.986 176.743 161.246 176.535 161.505 176.326C161.931 175.983 162.554 176.049 162.898 176.475ZM46.0555 183.043C46.3492 182.582 46.9612 182.446 47.4224 182.74C47.7036 182.919 47.9857 183.097 48.2689 183.273C48.7331 183.562 48.8751 184.173 48.5861 184.637C48.2971 185.101 47.6865 185.243 47.2223 184.954C46.9335 184.774 46.6456 184.593 46.3588 184.41C45.8975 184.117 45.7617 183.505 46.0555 183.043ZM153.945 183.043C154.238 183.505 154.102 184.117 153.641 184.41C153.354 184.593 153.066 184.774 152.778 184.954C152.313 185.243 151.703 185.101 151.414 184.637C151.125 184.173 151.267 183.562 151.731 183.273C152.014 183.097 152.296 182.919 152.578 182.74C153.039 182.446 153.651 182.582 153.945 183.043ZM55.6881 188.57C55.9282 188.079 56.5211 187.875 57.0124 188.115C57.3118 188.262 57.6119 188.407 57.913 188.55C58.4067 188.785 58.6164 189.376 58.3813 189.87C58.1462 190.363 57.5554 190.573 57.0617 190.338C56.7545 190.192 56.4483 190.044 56.1428 189.895C55.6516 189.654 55.448 189.062 55.6881 188.57ZM144.312 188.57C144.552 189.062 144.348 189.654 143.857 189.895C143.552 190.044 143.245 190.192 142.938 190.338C142.445 190.573 141.854 190.363 141.619 189.87C141.384 189.376 141.593 188.785 142.087 188.55C142.388 188.407 142.688 188.262 142.988 188.116C143.479 187.875 144.072 188.079 144.312 188.57ZM65.8794 192.979C66.0626 192.464 66.6288 192.195 67.1441 192.378C67.4576 192.489 67.7718 192.599 68.0867 192.708C68.6038 192.886 68.8787 193.449 68.7007 193.966C68.5228 194.483 67.9594 194.758 67.4423 194.58C67.121 194.469 66.8003 194.357 66.4804 194.243C65.9652 194.06 65.6961 193.494 65.8794 192.979ZM134.121 192.979C134.304 193.494 134.035 194.06 133.52 194.244C133.2 194.357 132.879 194.469 132.558 194.58C132.041 194.758 131.477 194.483 131.299 193.966C131.121 193.449 131.396 192.886 131.913 192.708C132.228 192.599 132.542 192.489 132.856 192.378C133.371 192.195 133.937 192.464 134.121 192.979ZM76.5017 196.21C76.6256 195.677 77.1578 195.346 77.6904 195.47C78.0149 195.545 78.3401 195.619 78.6658 195.692C79.1997 195.81 79.5364 196.339 79.4179 196.873C79.2994 197.407 78.7706 197.743 78.2368 197.625C77.9044 197.551 77.5726 197.476 77.2415 197.399C76.7089 197.275 76.3777 196.742 76.5017 196.21ZM123.498 196.21C123.622 196.742 123.291 197.275 122.758 197.399C122.427 197.476 122.096 197.551 121.763 197.625C121.229 197.743 120.701 197.407 120.582 196.873C120.464 196.339 120.8 195.81 121.334 195.692C121.66 195.619 121.985 195.545 122.31 195.47C122.842 195.346 123.374 195.677 123.498 196.21ZM87.4223 198.224C87.4856 197.68 87.9773 197.291 88.5204 197.355C88.8521 197.393 89.1843 197.431 89.5169 197.466C90.0607 197.524 90.4546 198.011 90.3968 198.555C90.339 199.099 89.8514 199.493 89.3076 199.435C88.9682 199.399 88.6294 199.361 88.291 199.322C87.7479 199.258 87.3589 198.767 87.4223 198.224ZM112.578 198.224C112.641 198.767 112.252 199.258 111.709 199.322C111.371 199.361 111.032 199.399 110.692 199.435C110.149 199.493 109.661 199.099 109.603 198.555C109.545 198.011 109.939 197.524 110.483 197.466C110.816 197.431 111.148 197.393 111.48 197.355C112.023 197.291 112.514 197.68 112.578 198.224ZM98.5023 199.004C98.505 198.457 98.9505 198.016 99.4973 198.019C99.6648 198.019 99.8323 198.02 100 198.02C100.168 198.02 100.335 198.019 100.503 198.019C101.049 198.016 101.495 198.457 101.498 199.004C101.5 199.55 101.059 199.996 100.513 199.999C100.342 200 100.171 200 100 200C99.9213 200 99.8426 200 99.764 200C99.6718 200 99.5796 199.999 99.4874 199.999C98.9406 199.996 98.4995 199.55 98.5023 199.004Z" fill="#FFCA43"/>
<g filter="url(#filter0_i)">
<circle cx="99.9999" cy="100" r="86.6337" fill="url(#paint0_radial)"/>
</g>
<g filter="url(#filter1_d)">
<path d="M70.1363 153.376C70.5371 158.586 74.8815 162.609 80.1068 162.609H120.949C126.175 162.609 130.519 158.586 130.92 153.376L135.38 95.3924C135.49 93.9959 136.656 92.9184 138.055 92.9184C146.925 92.9184 154.138 85.7054 154.138 76.8359C154.138 67.1194 145.617 60.3486 137.969 60.3486C135.337 60.3486 132.879 61.0831 130.668 62.5385C130.011 62.9701 129.191 63.0934 128.438 62.8682C127.682 62.6458 127.063 62.1043 126.744 61.3806C121.699 49.9808 113.371 44.6709 100.529 44.6709C86.7065 44.6709 76.2476 51.1441 74.5026 60.7775C74.3418 61.662 73.7494 62.4072 72.9212 62.761C72.0956 63.1202 71.1441 63.0344 70.3935 62.5385C68.1822 61.0831 65.7243 60.3486 63.0921 60.3486C55.4422 60.3486 46.9211 67.1194 46.9211 76.8359C46.9211 85.7054 54.1341 92.9184 63.0036 92.9184C64.4028 92.9184 65.5688 93.9959 65.676 95.3924L70.1363 153.376Z" fill="#D2D2D2"/>
</g>
<path d="M70.1365 149.736C70.5373 154.946 74.8817 158.969 80.1071 158.969H120.95C126.175 158.969 130.519 154.946 130.92 149.736L135.38 91.7523C135.49 90.3558 136.656 89.2782 138.056 89.2782C146.925 89.2782 154.138 82.0652 154.138 73.1957C154.138 63.4792 145.617 56.7085 137.97 56.7085C135.338 56.7085 132.88 57.4429 130.668 58.8984C130.012 59.33 129.191 59.4533 128.438 59.2281C127.682 59.0056 127.063 58.4642 126.744 57.7405C121.7 46.3407 113.372 41.0308 100.53 41.0308C86.7068 41.0308 76.2478 47.504 74.5029 57.1374C74.342 58.0219 73.7497 58.7671 72.9214 59.1209C72.0958 59.4801 71.1443 59.3943 70.3938 58.8984C68.1824 57.4429 65.7245 56.7085 63.0923 56.7085C55.4424 56.7085 46.9214 63.4792 46.9214 73.1957C46.9214 82.0652 54.1344 89.2782 63.0039 89.2782C64.4031 89.2782 65.569 90.3558 65.6763 91.7523L70.1365 149.736Z" fill="white"/>
<path d="M91.8972 115.246C91.8651 114.785 91.465 114.436 91.0035 114.468C90.542 114.501 90.1939 114.901 90.2259 115.362L91.672 136.185H78.3258L76.0894 120.375C76.0246 119.917 75.6008 119.598 75.1427 119.663C74.6847 119.727 74.3659 120.151 74.4307 120.609L76.6339 136.185H69.094L70.3706 152.782C70.6392 156.273 73.5504 158.969 77.0519 158.969H124.004C127.506 158.969 130.417 156.273 130.686 152.782L131.962 136.185H124.122L126.326 120.609C126.39 120.151 126.072 119.727 125.614 119.663C125.155 119.598 124.732 119.917 124.667 120.375L122.43 136.185H108.652L110.098 115.362C110.13 114.901 109.782 114.501 109.32 114.468C108.859 114.436 108.459 114.785 108.427 115.246L106.973 136.185H93.3513L91.8972 115.246Z" fill="#E8E8E8"/>
<defs>
<filter id="filter0_i" x="13.3662" y="13.3665" width="173.267" height="173.267" filterUnits="userSpaceOnUse" color-interpolation-filters="sRGB">
<feFlood flood-opacity="0" result="BackgroundImageFix"/>
<feBlend mode="normal" in="SourceGraphic" in2="BackgroundImageFix" result="shape"/>
<feColorMatrix in="SourceAlpha" type="matrix" values="0 0 0 0 0 0 0 0 0 0 0 0 0 0 0 0 0 0 127 0" result="hardAlpha"/>
<feOffset/>
<feGaussianBlur stdDeviation="8"/>
<feComposite in2="hardAlpha" operator="arithmetic" k2="-1" k3="1"/>
<feColorMatrix type="matrix" values="0 0 0 0 0 0 0 0 0 0 0 0 0 0 0 0 0 0 0.32 0"/>
<feBlend mode="normal" in2="shape" result="effect1_innerShadow"/>
</filter>
<filter id="filter1_d" x="34.9211" y="32.6709" width="131.217" height="141.938" filterUnits="userSpaceOnUse" color-interpolation-filters="sRGB">
<feFlood flood-opacity="0" result="BackgroundImageFix"/>
<feColorMatrix in="SourceAlpha" type="matrix" values="0 0 0 0 0 0 0 0 0 0 0 0 0 0 0 0 0 0 127 0"/>
<feOffset/>
<feGaussianBlur stdDeviation="6"/>
<feColorMatrix type="matrix" values="0 0 0 0 0 0 0 0 0 0 0 0 0 0 0 0 0 0 0.25 0"/>
<feBlend mode="normal" in2="BackgroundImageFix" result="effect1_dropShadow"/>
<feBlend mode="normal" in="SourceGraphic" in2="effect1_dropShadow" result="shape"/>
</filter>
<radialGradient id="paint0_radial" cx="0" cy="0" r="1" gradientUnits="userSpaceOnUse" gradientTransform="translate(99.9999 100) rotate(90) scale(86.6337)">
<stop offset="0.408169" stop-color="#F5C443"/>
<stop offset="0.885417" stop-color="#FFCA43"/>
<stop offset="1" stop-color="#FFCA43"/>
</radialGradient>
</defs>
</svg>
