<svg width="625" height="448" viewBox="0 0 625 448" fill="none" xmlns="http://www.w3.org/2000/svg">
<path d="M600.079 103.868C600.079 103.868 600.043 103.902 599.982 103.962L599.982 103.868L599.979 103.964C598.651 105.26 583.861 119.896 578.123 134.742C576.218 132.616 574.871 131.32 574.871 131.32C574.871 131.32 574.848 131.342 574.807 131.382L574.807 131.32L574.806 131.383C573.723 132.439 559 147.01 559 158.557C559 169.705 565.146 174.104 573.057 174.666L572.483 185.662H574.086L574.263 174.722C574.465 174.726 574.667 174.729 574.871 174.729C580.716 174.729 585.82 172.864 588.574 168.068C591.366 169.173 594.315 169.826 597.311 170.002L596.435 186.78H598.881L599.152 170.087C599.46 170.094 599.768 170.099 600.079 170.099C613.452 170.099 624.294 163.713 624.294 145.424C624.294 127.135 600.079 103.868 600.079 103.868Z" fill="#E0E0E0"/>
<path d="M337.358 135.552C337.358 135.552 337.322 135.586 337.26 135.646L337.261 135.552L337.258 135.648C335.883 136.989 320.086 152.622 314.832 167.986V160.37L264.416 84L214 160.37V217.78H314.832V188.097C318.054 197.133 325.569 201.046 334.59 201.686L333.714 218.464H336.16L336.43 201.772C336.738 201.779 337.047 201.783 337.358 201.783C350.731 201.783 361.572 195.397 361.572 177.108C361.572 158.819 337.358 135.552 337.358 135.552Z" fill="#E4E4E4"/>
<path d="M133 383C194.304 383 244 375.837 244 367C244 358.163 194.304 351 133 351C71.6964 351 22 358.163 22 367C22 375.837 71.6964 383 133 383Z" fill="#D9D9D9"/>
<path d="M267 230.27C267 331.614 207.233 367 133.5 367C131.792 367 130.087 366.981 128.384 366.942C124.968 366.869 121.584 366.705 118.241 366.475C51.6983 361.728 0 324.522 0 230.27C0 132.729 123.658 9.64982 132.947 0.540983L132.963 0.52461C133.321 0.172046 133.5 0 133.5 0C133.5 0 267 128.925 267 230.27Z" fill="#F9A826"/>
<path d="M130.172 351.551L179.466 282.77L130.049 359.103L129.918 367C126.469 366.926 123.053 366.762 119.678 366.533L124.991 265.123L124.95 264.336L125.04 264.188L125.541 254.611L76 178.088L125.697 247.427L125.812 249.461L129.827 172.84L87.4142 93.7671L130.344 159.392L134.524 0.541067L134.54 0V0.524692L133.843 125.788L176.067 76.129L133.67 136.579L132.554 205.181L171.977 139.343L132.389 215.275L131.765 253.413L189 161.778L131.552 266.722L130.172 351.551Z" fill="#3F3D56"/>
<path d="M484.856 354C525.352 354 558.18 349.268 558.18 343.431C558.18 337.594 525.352 332.862 484.856 332.862C444.361 332.862 411.533 337.594 411.533 343.431C411.533 349.268 444.361 354 484.856 354Z" fill="#D9D9D9"/>
<path d="M573.373 253.11C573.373 320.056 533.893 343.431 485.187 343.431C484.058 343.431 482.932 343.418 481.807 343.393C479.55 343.344 477.315 343.236 475.107 343.084C431.151 339.948 397 315.371 397 253.11C397 188.678 478.685 107.374 484.821 101.357L484.832 101.347C485.068 101.114 485.187 101 485.187 101C485.187 101 573.373 186.165 573.373 253.11Z" fill="#FDB43E"/>
<path d="M482.988 333.226L515.551 287.79L482.907 338.215L482.82 343.431C480.542 343.382 478.285 343.274 476.056 343.122L479.566 276.134L479.538 275.613L479.598 275.516L479.929 269.189L447.204 218.64L480.032 264.444L480.108 265.788L482.76 215.174L454.744 162.94L483.102 206.29L485.863 101.357L485.874 101V101.347L485.413 184.093L513.305 151.289L485.299 191.221L484.561 236.537L510.604 193.046L484.453 243.205L484.041 268.398L521.849 207.866L483.9 277.19L482.988 333.226Z" fill="#3F3D56"/>
<path d="M395 448C461.274 448 515 442.627 515 436C515 429.373 461.274 424 395 424C328.726 424 275 429.373 275 436C275 442.627 328.726 448 395 448Z" fill="#E2E2E2"/>
<path d="M307.519 133.839L322.147 123.091C323.704 121.946 325.892 122.284 327.032 123.844L354.237 161.067C355.377 162.627 355.039 164.82 353.481 165.965L338.853 176.712C337.296 177.857 335.108 177.519 333.968 175.959L306.763 138.737C305.623 137.176 305.961 134.983 307.519 133.839Z" fill="#3F3D56" stroke="#2B293F"/>
<path d="M420.874 193.806C420.874 193.806 434.393 187.286 444.012 189.716L420.874 127.132V120.706L453.625 198.856C461.813 214.335 472.165 249.615 454.515 252.448C434.491 255.661 398.447 267.71 398.447 267.71L390.437 197.823L420.874 193.806Z" fill="#2F2E41"/>
<path d="M342 174.914C342 174.914 320.308 144.583 314.684 155.288C309.061 165.993 339.941 184 339.941 184L342 174.914Z" fill="#FFB9B9"/>
<path d="M349.187 173.724L340.376 168.904C340.376 168.904 334.769 183.364 334.769 185.773C334.769 188.183 343.58 188.987 343.58 188.987L349.187 173.724Z" fill="#D0CDE1"/>
<path d="M382.828 112.673C394.33 112.673 403.653 103.322 403.653 91.7872C403.653 80.2523 394.33 70.9014 382.828 70.9014C371.326 70.9014 362.002 80.2523 362.002 91.7872C362.002 103.322 371.326 112.673 382.828 112.673Z" fill="#FFB9B9"/>
<path d="M398.848 89.3773C398.848 89.3773 407.658 115.886 414.066 117.493C420.474 119.1 389.236 131.149 389.236 131.149C389.236 131.149 379.624 108.657 374.818 103.033C370.012 97.4103 398.848 89.3773 398.848 89.3773Z" fill="#FFB9B9"/>
<path opacity="0.1" d="M448.909 244.415C466.174 241.644 456.645 207.824 448.556 191.861C449.289 192.422 449.946 193.076 450.511 193.807C458.521 204.249 474.54 249.234 454.516 252.448C434.491 255.661 398.447 267.71 398.447 267.71L397.357 258.202C407.657 254.886 433.207 246.934 448.909 244.415Z" fill="black"/>
<path d="M476.542 382.583C476.542 382.583 496.567 398.649 494.965 400.255C493.363 401.862 476.542 427.568 462.125 429.978C447.707 432.387 441.299 432.387 441.299 429.978C441.299 427.568 445.304 421.944 452.513 419.535C459.722 417.125 460.523 401.059 459.722 397.845C458.921 394.632 476.542 382.583 476.542 382.583Z" fill="#2F2E41"/>
<path d="M416.469 262.891L429.284 323.138C429.284 323.138 482.149 382.583 480.547 383.386C478.945 384.189 462.926 400.255 459.722 400.255C456.518 400.255 401.25 337.598 401.25 337.598L381.226 285.383L416.469 262.891Z" fill="#2F2E41"/>
<path opacity="0.1" d="M416.469 262.891L429.284 323.138C429.284 323.138 482.149 382.583 480.547 383.386C478.945 384.189 462.926 400.255 459.722 400.255C456.518 400.255 401.25 337.598 401.25 337.598L381.226 285.383L416.469 262.891Z" fill="black"/>
<path d="M429.285 243.611C429.285 243.611 422.877 270.924 405.255 289.4C387.634 307.876 379.624 345.631 379.624 345.631L362.002 421.141C362.002 421.141 330.764 417.125 332.366 409.092L349.187 342.418C349.187 342.418 368.41 250.038 378.823 243.611C389.236 237.185 429.285 243.611 429.285 243.611Z" fill="#2F2E41"/>
<path d="M360.4 414.715C360.4 414.715 365.206 429.978 362.002 431.584C358.798 433.191 301.929 436.404 298.725 425.158C298.725 425.158 297.123 419.535 309.938 419.535C322.754 419.535 336.371 407.485 336.371 407.485L360.4 414.715Z" fill="#2F2E41"/>
<path d="M384.43 127.936C384.43 127.936 405.255 107.05 410.862 108.656C416.469 110.263 416.469 118.296 416.469 118.296C416.469 118.296 434.091 120.706 432.489 178.544C430.887 236.381 446.906 242.808 441.3 246.021C435.693 249.234 371.614 263.694 369.211 249.234C366.808 234.775 367.609 179.347 374.017 161.674C380.425 144.002 388.435 132.755 384.43 127.936Z" fill="#575A89"/>
<path d="M410.862 132.756C410.862 132.756 434.892 144.002 421.275 165.691C407.658 187.38 397.246 210.676 382.828 209.873C368.41 209.069 345.983 195.413 339.575 195.413C333.167 195.413 341.978 172.117 346.784 171.314C351.59 170.511 374.017 184.167 374.017 184.167C374.017 184.167 382.027 129.542 410.862 132.756Z" fill="#575A89"/>
<path d="M394.842 94.0951C393.065 93.9888 391.33 94.5909 389.566 94.8258C383.254 95.6662 376.688 91.0727 375.294 84.8418C375.183 84.0121 374.936 83.2063 374.564 82.4566C373.593 80.866 371.381 80.5627 369.557 80.9284C367.733 81.2942 366.004 82.1502 364.147 82.248C361.279 82.3989 358.526 80.6283 356.998 78.19C355.469 75.7517 355.037 72.7514 355.243 69.8788L356.618 71.3259C357.176 70.1406 357.392 68.8219 357.24 67.5198C357.969 67.3252 358.735 67.3215 359.465 67.5089C360.196 67.6963 360.866 68.0687 361.412 68.5903C362.624 68.7196 361.709 66.3353 362.61 65.5112C362.987 65.1662 363.565 65.2313 364.075 65.2362C366.654 65.2612 368.74 63.2829 370.773 61.6904C374.294 58.9374 378.411 57.0537 382.793 56.1918C385.705 55.6222 388.801 55.5306 391.563 56.6181C393.831 57.5113 395.729 59.1379 397.486 60.8317C401.809 65.0012 405.638 69.9003 407.437 75.6391C408.899 80.3397 408.94 85.3693 407.556 90.0934C406.831 92.5468 404.647 100.949 401.449 101.145C397.431 101.391 399.843 94.3943 394.842 94.0951Z" fill="#2F2E41"/>
</svg>
